<?xml version='1.0' encoding='UTF-8'?>
<svg xmlns="http://www.w3.org/2000/svg" version="1.1" width="921" height="384">
<path d="M0 0 C10.75390193 5.94395602 21.44805792 7.43868262 33.54614258 8.79711914 C78.96871467 14.21969123 78.96871467 14.21969123 93.67114258 28.92211914 C94.31704549 35.05819681 93.33572313 38.32100252 89.96020508 43.45336914 C89.32211914 44.18040039 89.32211914 44.18040039 88.67114258 44.92211914 C88.01114258 44.92211914 87.35114258 44.92211914 86.67114258 44.92211914 C86.76395508 43.89731445 86.85676758 42.87250977 86.95239258 41.81665039 C87.62477679 34.60194947 87.62477679 34.60194947 85.41723633 27.98852539 C83.22153851 26.54211538 81.17190176 25.7521432 78.67114258 24.92211914 C77.4980957 24.48770508 76.32504883 24.05329102 75.11645508 23.60571289 C71.33676295 22.24415649 67.52223424 21.06613222 63.67114258 19.92211914 C62.49745117 19.5644043 62.49745117 19.5644043 61.30004883 19.19946289 C50.83550951 16.44563675 39.46312682 16.70734805 28.74926758 17.39477539 C17.39035171 18.03649617 6.04623966 18.07355837 -5.328125 18.05249023 C-8.75875272 18.04713102 -12.18924926 18.05247173 -15.61987305 18.05883789 C-32.95368319 18.06459573 -50.24719617 17.62998436 -67.51635742 16.04711914 C-68.45592285 15.9654248 -69.39548828 15.88373047 -70.36352539 15.79956055 C-75.43920682 15.34132192 -80.49080987 14.78982888 -85.54370117 14.12524414 C-103.47606462 11.78773303 -122.38149706 9.87562029 -140.32885742 12.92211914 C-141.83523962 12.99540515 -143.34417068 13.03070383 -144.85229492 13.01977539 C-145.64506836 13.01655273 -146.4378418 13.01333008 -147.25463867 13.01000977 C-148.06288086 13.00163086 -148.87112305 12.99325195 -149.70385742 12.98461914 C-150.53530273 12.98010742 -151.36674805 12.9755957 -152.22338867 12.97094727 C-154.25857639 12.95925078 -156.29372665 12.94131849 -158.32885742 12.92211914 C-158.32885742 12.26211914 -158.32885742 11.60211914 -158.32885742 10.92211914 C-157.6564502 10.75196289 -156.98404297 10.58180664 -156.29125977 10.40649414 C-144.3713521 7.36328567 -132.58989005 4.2276167 -121.07885742 -0.14038086 C-113.66143769 -2.95089285 -106.23714569 -5.37989727 -98.57885742 -7.45288086 C-97.69810547 -7.69143799 -96.81735352 -7.92999512 -95.90991211 -8.17578125 C-62.76603324 -16.90333291 -30.39604717 -17.12457415 0 0 Z " fill="#D9B561" transform="translate(462.328857421875,190.077880859375)" stroke="#D9B561" stroke-width="3" />
<path d="M0 0 C4.08319218 -0.0885085 8.16613163 -0.14089063 12.25 -0.1875 C13.38953125 -0.21263672 14.5290625 -0.23777344 15.703125 -0.26367188 C25.0990592 -0.34375086 35.94303878 -0.1423494 43.0625 6.8125 C43.75472656 7.45832031 44.44695312 8.10414063 45.16015625 8.76953125 C50.23659709 14.92377269 50.63688724 20.46740869 50.484375 28.22265625 C49.60635308 35.06981105 46.32657932 39.47953907 41.75 44.4375 C37.71706914 46.72893799 33.47549784 47.85747453 29 49 C28.1169519 49.26345215 28.1169519 49.26345215 27.21606445 49.53222656 C24.47877287 50.11002216 21.93835975 50.11193041 19.140625 50.09765625 C18.02558594 50.09443359 16.91054688 50.09121094 15.76171875 50.08789062 C14.60285156 50.07951172 13.44398438 50.07113281 12.25 50.0625 C11.07566406 50.05798828 9.90132813 50.05347656 8.69140625 50.04882812 C5.79421928 50.03705094 2.89713546 50.02060326 0 50 C-0.495 48.515 -0.495 48.515 -1 47 C1.475 46.505 1.475 46.505 4 46 C4 32.14 4 18.28 4 4 C2.68 3.67 1.36 3.34 0 3 C0 2.01 0 1.02 0 0 Z " fill="#CDAA58" transform="translate(418,258)" stroke="#CDAA58" stroke-width="3" />
<path d="M0 0 C4.02009457 -0.07455949 8.03991733 -0.12879358 12.06054688 -0.16479492 C13.42617816 -0.17981428 14.79176176 -0.20023608 16.15722656 -0.22631836 C18.12803905 -0.26300137 20.09921408 -0.27818551 22.0703125 -0.29296875 C23.25383301 -0.3086792 24.43735352 -0.32438965 25.65673828 -0.34057617 C30.18156181 0.12036503 33.4976775 1.64790975 36.875 4.6875 C38.53669487 8.10320612 38.66381006 11.3235135 38 15 C36.1891409 18.03965634 35.09599977 19.60422231 31.75 20.8125 C31.1725 20.874375 30.595 20.93625 30 21 C30 21.66 30 22.32 30 23 C30.886875 23.061875 31.77375 23.12375 32.6875 23.1875 C36.75839238 24.18602077 38.27928651 25.89061315 41 29 C41.33 29.33 41.66 29.66 42 30 C42.3971148 34.6859547 42.46568973 37.08586831 40.3125 41.3125 C36.06600342 46.24761765 31.32888307 47.96207306 25 49 C20.66263124 49.23208107 16.34193018 49.18965646 12 49.125 C10.84371094 49.11597656 9.68742187 49.10695313 8.49609375 49.09765625 C5.66384353 49.07424922 2.83203381 49.04145995 0 49 C0 48.01 0 47.02 0 46 C1.32 45.34 2.64 44.68 4 44 C4 30.47 4 16.94 4 3 C2.68 2.67 1.36 2.34 0 2 C0 1.34 0 0.68 0 0 Z " fill="#CFB36F" transform="translate(287,259)" stroke="#CFB36F" stroke-width="3" />
<path d="M0 0 C-30.24982011 0.1591838 -59.90531581 -0.57209643 -90 -4 C-91.26054199 -4.14260254 -92.52108398 -4.28520508 -93.81982422 -4.43212891 C-101.2152523 -5.27094239 -108.60864003 -6.12607542 -116 -7 C-116 -7.66 -116 -8.32 -116 -9 C-76.11490122 -20.65837308 -35.40229907 -26.73159529 0 0 Z " fill="#FDFCF7" transform="translate(469,202)" stroke="#FDFCF7" stroke-width="3" />
<path d="M0 0 C3.9790243 -0.08802152 7.95779388 -0.14073233 11.9375 -0.1875 C13.05447266 -0.21263672 14.17144531 -0.23777344 15.32226562 -0.26367188 C22.46478519 -0.32650929 29.70930798 -0.22055489 35.65234375 4.24023438 C38.32338174 6.98156284 39.03414384 9.19555111 39.6875 12.9375 C39.37593209 17.86593781 36.53222575 20.79993309 33 24 C31.68026591 25.01788001 30.35004775 26.02268283 29 27 C30.90732161 29.61112867 32.82744158 32.21257506 34.75 34.8125 C35.28882813 35.55048828 35.82765625 36.28847656 36.3828125 37.04882812 C36.91132813 37.76103516 37.43984375 38.47324219 37.984375 39.20703125 C38.70705566 40.18893433 38.70705566 40.18893433 39.44433594 41.19067383 C41.9860327 44.14681235 44.30047125 45.76682375 48 47 C47.67 47.99 47.34 48.98 47 50 C42.49895024 50.67927428 38.47952516 50.91135167 34 50 C30.42773827 46.87572549 28.33142425 43.096719 26 39 C24.79453751 37.10967308 23.56664262 35.23338693 22.3125 33.375 C21.79300781 32.55773437 21.27351563 31.74046875 20.73828125 30.8984375 C18.84677078 28.4573535 18.84677078 28.4573535 14 28 C14.33 33.94 14.66 39.88 15 46 C16.65 46.33 18.3 46.66 20 47 C20 47.99 20 48.98 20 50 C13.4 50 6.8 50 0 50 C0 49.01 0 48.02 0 47 C1.32 46.34 2.64 45.68 4 45 C4 31.8 4 18.6 4 5 C2.68 4.34 1.36 3.68 0 3 C0 2.01 0 1.02 0 0 Z " fill="#D1B371" transform="translate(336,258)" stroke="#D1B371" stroke-width="3" />
<path d="M0 0 C4.90630103 3.15120147 9.66328453 6.46666692 14.33740234 9.95043945 C29.48353068 21.23173366 45.94631148 30.87305313 63 39 C64.60294922 39.77923828 64.60294922 39.77923828 66.23828125 40.57421875 C81.67286158 47.99697203 97.59133142 54.09165047 113.89208984 59.31884766 C117.60386834 60.51827573 121.30139038 61.76066685 125 63 C105.77789161 69.40736946 63.07768745 45.84000354 45 37 C43.31553161 36.03028663 41.63925044 35.04433509 40 34 C40 37.63 40 41.26 40 45 C39.34 45 38.68 45 38 45 C38.05542969 44.21496094 38.11085938 43.42992187 38.16796875 42.62109375 C38.18937713 39.13152707 38.00716097 36.3516311 37 33 C32.96577728 29.11616159 28.28274227 26.76091409 23 25 C23 29.62 23 34.24 23 39 C22.67 39 22.34 39 22 39 C22.03222656 37.91460937 22.06445312 36.82921875 22.09765625 35.7109375 C22.37712964 27.66104509 22.37712964 27.66104509 19.0703125 20.70703125 C16.76822389 19.23897802 14.48764529 18.11630469 12 17 C10.68 16.01 9.36 15.02 8 14 C7.67 21.92 7.34 29.84 7 38 C4.36 38 1.72 38 -1 38 C-1.33 30.08 -1.66 22.16 -2 14 C-3.60875 15.464375 -5.2175 16.92875 -6.875 18.4375 C-11.75 22.875 -11.75 22.875 -14 24 C-14.31241371 26.54941373 -14.51303421 29.00361513 -14.625 31.5625 C-14.66367187 32.27341797 -14.70234375 32.98433594 -14.7421875 33.71679688 C-14.83671783 35.47742425 -14.91945817 37.23867728 -15 39 C-15.66 39 -16.32 39 -17 39 C-17.495 33.06 -17.495 33.06 -18 27 C-19.423125 27.94875 -20.84625 28.8975 -22.3125 29.875 C-24.875 31.58333333 -27.4375 33.29166667 -30 35 C-30.57748803 36.96361864 -30.57748803 36.96361864 -30.6875 39.125 C-30.790625 40.40375 -30.89375 41.6825 -31 43 C-31.66 43 -32.32 43 -33 43 C-33.495 40.03 -33.495 40.03 -34 37 C-34.99 37.53625 -35.98 38.0725 -37 38.625 C-43.75658356 41.99733359 -50.90248419 44.45392249 -58 47 C-58.70302246 47.25523437 -59.40604492 47.51046875 -60.13037109 47.7734375 C-62.16587862 48.50794289 -64.20647575 49.22564246 -66.25 49.9375 C-68.05210937 50.56978516 -68.05210937 50.56978516 -69.890625 51.21484375 C-73.00066223 52.00016722 -74.05960021 51.89412644 -77 51 C-76.43829102 50.78496826 -75.87658203 50.56993652 -75.29785156 50.34838867 C-46.99759168 39.4100225 -18.47347292 24.88711189 0 0 Z " fill="#D2B572" transform="translate(408,133)" stroke="#D2B572" stroke-width="3" />
<path d="M0 0 C6.34414589 3.51304496 10.30807324 8.44221919 12.3984375 15.328125 C12.44009752 17.6610864 12.44565005 19.99526936 12.3984375 22.328125 C14.27526215 22.32479408 14.27526215 22.32479408 16.19000244 22.32139587 C28.01804401 22.3010684 39.846082 22.28610672 51.67413712 22.27631283 C57.75411969 22.27110834 63.83408808 22.26405515 69.9140625 22.25268555 C75.7884917 22.24176985 81.66290732 22.23582985 87.53734589 22.23324776 C89.77146366 22.2314091 92.00558074 22.22781881 94.23969269 22.22239494 C116.72028338 22.1700195 116.72028338 22.1700195 126.3984375 23.328125 C126.3053833 22.31516357 126.3053833 22.31516357 126.21044922 21.28173828 C125.72627702 15.09116059 126.83480338 11.27201573 130.55078125 6.30859375 C134.55347673 2.01817809 139.44238077 -1.21371679 145.3984375 -1.671875 C146.4709375 -1.754375 147.5434375 -1.836875 148.6484375 -1.921875 C156.02444348 -1.43014127 163.09651912 1.02620662 168.3984375 6.328125 C173.4060082 12.75376882 174.3984375 15.79706092 174.3984375 24.328125 C180.3384375 24.328125 186.2784375 24.328125 192.3984375 24.328125 C192.3984375 24.988125 192.3984375 25.648125 192.3984375 26.328125 C185.1384375 26.328125 177.8784375 26.328125 170.3984375 26.328125 C169.5940625 23.29625 169.5940625 23.29625 168.7734375 20.203125 C166.4821371 12.78060258 164.04210304 9.75723536 157.5859375 5.453125 C151.26726407 3.22300497 145.26410132 3.7463429 139.12109375 6.34765625 C134.87058952 8.76687748 132.74322874 12.77652388 131.3984375 17.328125 C131.0684375 20.298125 130.7384375 23.268125 130.3984375 26.328125 C89.8084375 26.328125 49.2184375 26.328125 7.3984375 26.328125 C6.4084375 19.893125 6.4084375 19.893125 5.3984375 13.328125 C2.11517092 7.65702818 -2.47110617 5.1820087 -8.6015625 3.328125 C-14.57953059 2.73032819 -18.33230072 3.76125377 -23.2265625 7.140625 C-27.71726339 11.27679687 -29.00333668 15.1570207 -29.7890625 21.140625 C-29.94761719 22.30207031 -30.10617187 23.46351563 -30.26953125 24.66015625 C-30.37910156 25.54058594 -30.48867188 26.42101562 -30.6015625 27.328125 C-31.2615625 27.328125 -31.9215625 27.328125 -32.6015625 27.328125 C-34.60139404 21.79917899 -35.37674132 17.0449643 -33.6015625 11.328125 C-26.4662582 -1.5195472 -13.37099125 -5.84209464 0 0 Z " fill="#D3B670" transform="translate(359.6015625,213.671875)" stroke="#D3B670" stroke-width="3" />
<path d="M0 0 C0.67740234 0.00064453 1.35480469 0.00128906 2.05273438 0.00195312 C13.97987186 0.10487186 13.97987186 0.10487186 16.0625 2.1875 C16.29731693 4.37042774 16.47613323 6.55953174 16.625 8.75 C16.70878906 9.94753906 16.79257812 11.14507812 16.87890625 12.37890625 C16.93949219 13.30574219 17.00007812 14.23257812 17.0625 15.1875 C15.7425 15.5175 14.4225 15.8475 13.0625 16.1875 C12.44401042 14.46223958 11.82552083 12.73697917 11.20703125 11.01171875 C9.56013993 8.38681005 7.86146945 7.48716134 5.0625 6.1875 C1.88512524 5.67868022 1.88512524 5.67868022 -1.4375 5.75 C-2.5409375 5.73066406 -3.644375 5.71132813 -4.78125 5.69140625 C-8.6105239 6.2932847 -10.21383546 7.47349384 -12.9375 10.1875 C-16.52380516 17.48819265 -18.7677151 24.75508882 -16.078125 32.73828125 C-15.09074425 34.92411326 -14.02554819 37.05073066 -12.9375 39.1875 C-12.6075 40.1775 -12.2775 41.1675 -11.9375 42.1875 C-9.56124655 43.37141223 -9.56124655 43.37141223 -6.9375 44.1875 C-5.4525 44.6825 -5.4525 44.6825 -3.9375 45.1875 C-2.20954648 45.25552967 -0.47914635 45.27245645 1.25 45.25 C2.838125 45.229375 4.42625 45.20875 6.0625 45.1875 C6.0625 39.9075 6.0625 34.6275 6.0625 29.1875 C4.4125 28.5275 2.7625 27.8675 1.0625 27.1875 C1.0625 26.1975 1.0625 25.2075 1.0625 24.1875 C7.9925 24.1875 14.9225 24.1875 22.0625 24.1875 C22.0625 25.1775 22.0625 26.1675 22.0625 27.1875 C20.0825 28.1775 20.0825 28.1775 18.0625 29.1875 C17.7325 35.1275 17.4025 41.0675 17.0625 47.1875 C7.63628274 51.2273074 -3.68717327 52.0634725 -13.5 48.6875 C-19.64043985 45.79849036 -23.26085306 40.70247041 -26.9375 35.1875 C-28.49099043 25.91667004 -28.22644053 18.10928953 -23.265625 9.890625 C-17.30848866 2.25147369 -9.39191354 -0.16882342 0 0 Z " fill="#CFAC5D" transform="translate(503.9375,257.8125)" stroke="#CFAC5D" stroke-width="3" />
<path d="M0 0 C15.20588235 0 15.20588235 0 21.6875 5.125 C25.82279691 10.26617994 27.35303406 15.4747649 26.9375 22.0625 C26.05230835 28.18269605 24.01198863 32.98801137 19.625 37.375 C12.71200354 41.654474 8.81086009 41 0 41 C0 27.47 0 13.94 0 0 Z " fill="#FDFBF7" transform="translate(432,263)" stroke="#FDFBF7" stroke-width="3" />
<path d="M0 0 C11.55 0 23.1 0 35 0 C35 3.63 35 7.26 35 11 C32 10 32 10 30.125 7.5 C27.27898566 4.42346737 24.23138291 4.48168041 20.1875 4.1875 C18.145625 4.125625 16.10375 4.06375 14 4 C14 9.61 14 15.22 14 21 C21.43120209 20.80602487 21.43120209 20.80602487 28 18 C28.99 18 29.98 18 31 18 C31 21.96 31 25.92 31 30 C30.01 30 29.02 30 28 30 C27.34 29.01 26.68 28.02 26 27 C23.12240932 26.19663887 23.12240932 26.19663887 19.875 25.8125 C17.93625 25.544375 15.9975 25.27625 14 25 C14 31.6 14 38.2 14 45 C23.50889163 44.76040145 23.50889163 44.76040145 32 41 C33.40466953 38.94906855 33.40466953 38.94906855 34 37 C34.99 37 35.98 37 37 37 C37.05422947 38.4370809 37.09289723 39.87475462 37.125 41.3125 C37.14820313 42.11300781 37.17140625 42.91351563 37.1953125 43.73828125 C37 46 37 46 35 49 C32.30459685 49.26686213 29.84152536 49.34818073 27.1484375 49.29296875 C26.37440582 49.28872391 25.60037415 49.28447906 24.80288696 49.28010559 C22.32657323 49.26328998 19.85106842 49.22563395 17.375 49.1875 C15.69792841 49.17245682 14.02084408 49.15876778 12.34375 49.14648438 C8.22885419 49.11337721 4.11456431 49.06157637 0 49 C0 48.01 0 47.02 0 46 C1.98 45.505 1.98 45.505 4 45 C4 31.14 4 17.28 4 3 C2.68 2.67 1.36 2.34 0 2 C0 1.34 0 0.68 0 0 Z " fill="#C3A45E" transform="translate(532,259)" stroke="#C3A45E" stroke-width="3" />
<path d="M0 0 C3.96 0 7.92 0 12 0 C12 0.66 12 1.32 12 2 C11.34 2 10.68 2 10 2 C10 7.94 10 13.88 10 20 C12.31 20 14.62 20 17 20 C17 20.33 17 20.66 17 21 C15.35 21 13.7 21 12 21 C11.67 28.59 11.34 36.18 11 44 C16.04052172 43.67267434 16.04052172 43.67267434 21.08081055 43.34179688 C24.7269546 43.10944682 28.34645282 42.94235034 32 43 C32 42.34 32 41.68 32 41 C32.99 41 33.98 41 35 41 C35 40.01 35 39.02 35 38 C35.66 38 36.32 38 37 38 C36.85769192 36.58297487 36.71099254 35.1663904 36.5625 33.75 C36.48128906 32.96109375 36.40007812 32.1721875 36.31640625 31.359375 C36.02365007 29.17635361 35.57935581 27.1226818 35 25 C37 26.5 37 26.5 39 29 C39.62239078 33.82352855 39.52247556 35.97439983 37.3125 40.3125 C33.06600342 45.24761765 28.32888307 46.96207306 22 48 C17.66263124 48.23208107 13.34193018 48.18965646 9 48.125 C7.84371094 48.11597656 6.68742187 48.10695313 5.49609375 48.09765625 C2.66384353 48.07424922 -0.16796619 48.04145995 -3 48 C-3 47.01 -3 46.02 -3 45 C-1.68 44.34 -0.36 43.68 1 43 C1.02473355 37.51904631 1.04287596 32.03812517 1.05493164 26.55712891 C1.05995792 24.69286534 1.06677992 22.8286057 1.07543945 20.96435547 C1.08757963 18.28351876 1.09324539 15.6027342 1.09765625 12.921875 C1.10281754 12.08944275 1.10797882 11.2570105 1.11329651 10.39935303 C1.11337204 9.61884583 1.11344757 8.83833862 1.11352539 8.03417969 C1.115746 7.35023132 1.11796661 6.66628296 1.12025452 5.96160889 C1.03739398 3.63187218 1.03739398 3.63187218 0 0 Z " fill="#D6AC4D" transform="translate(290,260)" stroke="#D6AC4D" stroke-width="3" />
<path d="M0 0 C4.73815377 -0.23112945 8.48870889 0.57977873 13 2 C15.77080623 2.79600219 18.16626491 3.11148534 21.046875 3.0625 C21.81 3.05476562 22.573125 3.04703125 23.359375 3.0390625 C24.93750419 3.01327608 26.51562932 2.98723951 28.09375 2.9609375 C33.16566308 2.90987797 37.97907875 3.26634941 43 4 C43 4.66 43 5.32 43 6 C43.85464844 6.12117187 44.70929688 6.24234375 45.58984375 6.3671875 C46.69457031 6.53476563 47.79929687 6.70234375 48.9375 6.875 C50.03964844 7.03742188 51.14179687 7.19984375 52.27734375 7.3671875 C53.17582031 7.57601562 54.07429687 7.78484375 55 8 C55.33 8.66 55.66 9.32 56 10 C54.89785156 9.89171875 54.89785156 9.89171875 53.7734375 9.78125 C44.26967215 8.99473149 34.78195226 8.88744786 25.25 8.875 C24.57185242 8.87250244 23.89370483 8.87000488 23.19500732 8.86743164 C21.23938879 8.86152753 19.28375017 8.8642075 17.328125 8.8671875 C16.1824707 8.86831543 15.03681641 8.86944336 13.85644531 8.87060547 C10.92560046 8.87314802 10.92560046 8.87314802 8 10 C4.9882515 10.11037822 2.00049111 10.16378908 -1.01171875 10.16796875 C-2.37438118 10.17418495 -2.37438118 10.17418495 -3.76457214 10.18052673 C-6.73892185 10.19025822 -9.71313672 10.19017409 -12.6875 10.1875 C-14.20455536 10.18759064 -14.20455536 10.18759064 -15.7522583 10.18768311 C-28.81545181 10.17655977 -41.83743582 9.96966559 -54.875 9.125 C-56.09920654 9.04660889 -57.32341309 8.96821777 -58.5847168 8.88745117 C-67.11217217 8.27274829 -75.53963036 7.20904809 -84 6 C-83.67 5.34 -83.34 4.68 -83 4 C-79.3958502 3.97099545 -75.79173038 3.95319982 -72.1875 3.9375 C-71.16333984 3.92912109 -70.13917969 3.92074219 -69.08398438 3.91210938 C-67.60961914 3.90727539 -67.60961914 3.90727539 -66.10546875 3.90234375 C-65.19949951 3.89710693 -64.29353027 3.89187012 -63.36010742 3.88647461 C-61 4 -61 4 -58 5 C-56.22703298 5.1109005 -54.45035258 5.16623243 -52.67407227 5.18945312 C-51.58606827 5.20617065 -50.49806427 5.22288818 -49.37709045 5.2401123 C-48.20206467 5.25368774 -47.02703888 5.26726318 -45.81640625 5.28125 C-44.00582985 5.30886414 -44.00582985 5.30886414 -42.15867615 5.33703613 C-38.29333425 5.39586331 -34.42794795 5.44864308 -30.5625 5.5 C-25.48037427 5.56761423 -20.39839057 5.64130314 -15.31640625 5.71875 C-14.14340469 5.73232544 -12.97040314 5.74590088 -11.76185608 5.7598877 C-10.67069992 5.77660522 -9.57954376 5.79332275 -8.45532227 5.81054688 C-7.01661522 5.82933899 -7.01661522 5.82933899 -5.54884338 5.84851074 C-3.22586087 5.98657607 -1.22579361 6.34507906 1 7 C1 5.68 1 4.36 1 3 C0.34 3 -0.32 3 -1 3 C-0.67 2.01 -0.34 1.02 0 0 Z " fill="#DDB252" transform="translate(469,197)" stroke="#DDB252" stroke-width="3" />
<path d="M0 0 C6.6 0 13.2 0 20 0 C20 0.99 20 1.98 20 3 C19.1850708 3.37036377 18.3701416 3.74072754 17.53051758 4.12231445 C14.87652402 5.67522812 14.87652402 5.67522812 14.55307007 7.80917358 C14.42023716 10.23398715 14.43883135 12.61549826 14.51171875 15.04296875 C14.51879349 15.9265657 14.52586823 16.81016266 14.53315735 17.72053528 C14.56115474 20.54371691 14.6239013 23.36491759 14.6875 26.1875 C14.71257604 28.10088282 14.73539042 30.01429672 14.75585938 31.92773438 C14.81099877 36.61925327 14.8973068 41.30929077 15 46 C16.65 46.33 18.3 46.66 20 47 C19.67 47.99 19.34 48.98 19 50 C12.73 50 6.46 50 0 50 C0 49.01 0 48.02 0 47 C1.32 46.34 2.64 45.68 4 45 C4 31.8 4 18.6 4 5 C2.68 4.34 1.36 3.68 0 3 C0 2.01 0 1.02 0 0 Z " fill="#CFB36F" transform="translate(389,258)" stroke="#CFB36F" stroke-width="3" />
<path d="M0 0 C5.61 0 11.22 0 17 0 C17 0.66 17 1.32 17 2 C15.02 2 13.04 2 11 2 C11 8.6 11 15.2 11 22 C12.32 22 13.64 22 15 22 C14.67 22.99 14.34 23.98 14 25 C13.01 25 12.02 25 11 25 C11.33 31.27 11.66 37.54 12 44 C13.65 44.33 15.3 44.66 17 45 C17 45.99 17 46.98 17 48 C10.4 48 3.8 48 -3 48 C-3 47.01 -3 46.02 -3 45 C-1.68 44.34 -0.36 43.68 1 43 C1.02470254 37.35832031 1.04286121 31.71667205 1.05493164 26.07495117 C1.05996315 24.15534924 1.06678898 22.23575114 1.07543945 20.31616211 C1.08755669 17.55842136 1.09324011 14.80073124 1.09765625 12.04296875 C1.10281754 11.18350143 1.10797882 10.32403412 1.11329651 9.43852234 C1.11337204 8.63791885 1.11344757 7.83731537 1.11352539 7.01245117 C1.115746 6.3085173 1.11796661 5.60458344 1.12025452 4.87931824 C1.06559534 2.77178344 1.06559534 2.77178344 0 0 Z " fill="#D2AA51" transform="translate(339,260)" stroke="#D2AA51" stroke-width="3" />
<path d="M0 0 C14.82335936 1.72724361 33.95872511 4.71680525 44 17 C44.83048533 23.12482931 43.65199164 26.4180244 40.2890625 31.53125 C39.65097656 32.25828125 39.65097656 32.25828125 39 33 C38.34 33 37.68 33 37 33 C37.0928125 31.97519531 37.185625 30.95039063 37.28125 29.89453125 C37.95363421 22.67983033 37.95363421 22.67983033 35.74609375 16.06640625 C33.55039593 14.61999624 31.50075918 13.83002406 29 13 C27.82695313 12.56558594 26.65390625 12.13117188 25.4453125 11.68359375 C21.66562037 10.32203735 17.85109166 9.14401308 14 8 C13.21753906 7.76152344 12.43507813 7.52304688 11.62890625 7.27734375 C1.16436693 4.52351761 -10.20801576 4.78522891 -20.921875 5.47265625 C-32.28079087 6.11437703 -43.62490292 6.15143923 -54.99926758 6.13037109 C-58.4298953 6.12501188 -61.86039184 6.13035259 -65.29101562 6.13671875 C-83.18473896 6.14290426 -100.99150639 5.62107882 -118.8125 3.9375 C-120.31586914 3.80118164 -120.31586914 3.80118164 -121.84960938 3.66210938 C-124.23347093 3.44539469 -126.61688968 3.22479703 -129 3 C-129 2.67 -129 2.34 -129 2 C-119.82752826 1.75134866 -110.78699547 2.04484367 -101.63745117 2.71606445 C-86.30951264 3.83560176 -71.05712629 4.19851195 -55.6875 4.1875 C-54.17500671 4.18858765 -54.17500671 4.18858765 -52.63195801 4.18969727 C-49.75847252 4.18946267 -46.88517316 4.18079148 -44.01171875 4.16796875 C-43.14441635 4.16677536 -42.27711395 4.16558197 -41.38352966 4.16435242 C-38.012181 4.13775849 -35.21996403 4.07332134 -32 3 C-29.88059377 2.90452314 -27.75827344 2.86926469 -25.63671875 2.8671875 C-24.35603516 2.86589844 -23.07535156 2.86460937 -21.75585938 2.86328125 C-21.08578857 2.86537598 -20.41571777 2.8674707 -19.7253418 2.86962891 C-17.73291595 2.8748803 -15.74047082 2.86920814 -13.74804688 2.86328125 C-5.10377475 2.8718868 3.38590933 3.29566812 12 4 C6.06 2.515 6.06 2.515 0 1 C0 0.67 0 0.34 0 0 Z " fill="#D0B26C" transform="translate(512,202)" stroke="#D0B26C" stroke-width="3" />
<path d="M0 0 C4.455 2.97 4.455 2.97 9 6 C8.34 6.33 7.68 6.66 7 7 C6.01 6.67 5.02 6.34 4 6 C3.505 5.01 3.505 5.01 3 4 C-0.85103301 4.53675903 -2.31797587 6.11600923 -4.75 9.0625 C-5.36359375 9.79597656 -5.9771875 10.52945313 -6.609375 11.28515625 C-7.06828125 11.85105469 -7.5271875 12.41695312 -8 13 C-7.01 13.66 -6.02 14.32 -5 15 C-5 14.34 -5 13.68 -5 13 C-4.01 13.33 -3.02 13.66 -2 14 C-3.62255228 15.48185125 -5.24811888 16.96040256 -6.875 18.4375 C-7.77992188 19.26121094 -8.68484375 20.08492187 -9.6171875 20.93359375 C-12 23 -12 23 -14 24 C-14.31241371 26.54941373 -14.51303421 29.00361513 -14.625 31.5625 C-14.66367187 32.27341797 -14.70234375 32.98433594 -14.7421875 33.71679688 C-14.83671783 35.47742425 -14.91945817 37.23867728 -15 39 C-15.66 39 -16.32 39 -17 39 C-17.495 33.06 -17.495 33.06 -18 27 C-19.423125 27.94875 -20.84625 28.8975 -22.3125 29.875 C-24.875 31.58333333 -27.4375 33.29166667 -30 35 C-30.57748803 36.96361864 -30.57748803 36.96361864 -30.6875 39.125 C-30.790625 40.40375 -30.89375 41.6825 -31 43 C-31.66 43 -32.32 43 -33 43 C-33.495 40.03 -33.495 40.03 -34 37 C-34.99 37.53625 -35.98 38.0725 -37 38.625 C-43.75658356 41.99733359 -50.90248419 44.45392249 -58 47 C-58.70302246 47.25523437 -59.40604492 47.51046875 -60.13037109 47.7734375 C-62.16587862 48.50794289 -64.20647575 49.22564246 -66.25 49.9375 C-68.05210937 50.56978516 -68.05210937 50.56978516 -69.890625 51.21484375 C-73.00066223 52.00016722 -74.05960021 51.89412644 -77 51 C-76.43829102 50.78496826 -75.87658203 50.56993652 -75.29785156 50.34838867 C-46.8977018 39.37141395 -18.63687402 24.84916536 0 0 Z " fill="#D5BA7B" transform="translate(408,133)" stroke="#D5BA7B" stroke-width="3" />
<path d="M0 0 C2.31 0 4.62 0 7 0 C7 6.27 7 12.54 7 19 C8.918125 18.87625 10.83625 18.7525 12.8125 18.625 C14.43091797 18.52058594 14.43091797 18.52058594 16.08203125 18.4140625 C19.18626186 18.18804267 19.18626186 18.18804267 22 16 C22.99 16 23.98 16 25 16 C25 19.96 25 23.92 25 28 C24.01 28 23.02 28 22 28 C21.34 27.01 20.68 26.02 20 25 C17.12240932 24.19663887 17.12240932 24.19663887 13.875 23.8125 C11.93625 23.544375 9.9975 23.27625 8 23 C8 29.93 8 36.86 8 44 C5.36 44 2.72 44 0 44 C0 29.48 0 14.96 0 0 Z " fill="#D5AC50" transform="translate(538,261)" stroke="#D5AC50" stroke-width="3" />
<path d="M0 0 C8.54149855 4.72110422 17.07261237 6.95557456 26.73364258 7.98461914 C33.44955167 8.70052823 33.44955167 8.70052823 35.67114258 10.92211914 C28.13326224 11.15524946 20.96711446 11.01760792 13.67114258 8.92211914 C13.34114258 8.59211914 13.01114258 8.26211914 12.67114258 7.92211914 C10.67155894 7.88131131 8.67069004 7.87957558 6.67114258 7.92211914 C6.34114258 8.58211914 6.01114258 9.24211914 5.67114258 9.92211914 C6.33114258 9.92211914 6.99114258 9.92211914 7.67114258 9.92211914 C7.67114258 11.24211914 7.67114258 12.56211914 7.67114258 13.92211914 C0.03014506 13.83776136 -7.61066055 13.74289586 -15.25135517 13.63459206 C-18.79920347 13.58463344 -22.34702205 13.53830359 -25.89501953 13.50024414 C-29.97341756 13.45633645 -34.05145287 13.39668684 -38.12963867 13.33618164 C-40.04224236 13.31885483 -40.04224236 13.31885483 -41.9934845 13.30117798 C-43.76498116 13.27137344 -43.76498116 13.27137344 -45.57226562 13.2409668 C-47.13446587 13.22098129 -47.13446587 13.22098129 -48.72822571 13.20059204 C-51.32885742 12.92211914 -51.32885742 12.92211914 -54.32885742 10.92211914 C-34.85885742 10.92211914 -15.38885742 10.92211914 4.67114258 10.92211914 C1.04114258 8.94211914 -2.58885742 6.96211914 -6.32885742 4.92211914 C-6.82385742 3.93211914 -6.82385742 3.93211914 -7.32885742 2.92211914 C-6.00885742 2.92211914 -4.68885742 2.92211914 -3.32885742 2.92211914 C-3.32885742 2.26211914 -3.32885742 1.60211914 -3.32885742 0.92211914 C-5.5567774 -0.20540735 -7.78611629 -1.32996225 -10.01635742 -2.45288086 C-10.64219727 -2.76999023 -11.26803711 -3.08709961 -11.9128418 -3.41381836 C-32.44839479 -13.73535285 -55.96577165 -11.42187405 -78.32885742 -11.07788086 C-78.32885742 -11.40788086 -78.32885742 -11.73788086 -78.32885742 -12.07788086 C-49.77473748 -15.77934085 -25.50622946 -14.36974075 0 0 Z " fill="#D4B468" transform="translate(462.328857421875,190.077880859375)" stroke="#D4B468" stroke-width="3" />
<path d="M0 0 C1.5233724 0.7616862 3.04673755 1.52338689 4.57006836 2.28515625 C5.86762727 2.93385363 7.16531829 3.58228681 8.46313477 4.23046875 C11.03965709 5.51759915 13.6158376 6.80482626 16.18359375 8.109375 C34.48114711 17.40078294 53.35478772 25.05378145 72.89208984 31.31884766 C76.60386834 32.51827573 80.30139038 33.76066685 84 35 C64.77789161 41.40736946 22.07768745 17.84000354 4 9 C2.31553161 8.03028663 0.63925044 7.04433509 -1 6 C-1 9.63 -1 13.26 -1 17 C-1.66 17 -2.32 17 -3 17 C-3.33 12.71 -3.66 8.42 -4 4 C1.48389728 4.43871178 4.56436358 5.80221561 9 9 C9.66 9 10.32 9 11 9 C11 8.34 11 7.68 11 7 C10.46375 6.896875 9.9275 6.79375 9.375 6.6875 C6.3288392 5.80571661 3.74472006 4.58583826 1 3 C0.67 2.01 0.34 1.02 0 0 Z " fill="#D8BF81" transform="translate(449,161)" stroke="#D8BF81" stroke-width="3" />
<path d="M0 0 C9.15384615 0 9.15384615 0 14 3 C16.48076864 5.48076864 16.35091557 6.44218209 16.4375 9.875 C16.36235657 14.60903634 16.36235657 14.60903634 13.625 17.5625 C7.91950541 20.68693752 8.49020471 20 0 20 C0 13.4 0 6.8 0 0 Z " fill="#FDFCF7" transform="translate(302,284)" stroke="#FDFCF7" stroke-width="3" />
<path d="M0 0 C2.31 0 4.62 0 7 0 C7 14.52 7 29.04 7 44 C4.69 44 2.38 44 0 44 C0 29.48 0 14.96 0 0 Z " fill="#D8AD4C" transform="translate(424,261)" stroke="#D8AD4C" stroke-width="3" />
<path d="M0 0 C0.0825 0.94875 0.165 1.8975 0.25 2.875 C0.4975 3.90625 0.745 4.9375 1 6 C2.78228936 7.14209817 2.78228936 7.14209817 5 8 C7.40959768 10.21422489 9.60194081 12.52324405 11.69921875 15.03515625 C15.94358669 20.2831855 15.94358669 20.2831855 22 23 C21.67 23.99 21.34 24.98 21 26 C16.49895024 26.67927428 12.47952516 26.91135167 8 26 C4.4231921 22.87174944 2.3591923 19.08480238 0 15 C-1.31953209 13.17742789 -2.65209115 11.36418692 -4 9.5625 C-6.5180772 6.15073022 -7 5.42226724 -7 1 C-4.50935112 0.31292445 -2.62113708 0 0 0 Z " fill="#CFAA5D" transform="translate(362,282)" stroke="#CFAA5D" stroke-width="3" />
<path d="M0 0 C1.5675 -0.061875 3.135 -0.12375 4.75 -0.1875 C6.07257813 -0.23970703 6.07257813 -0.23970703 7.421875 -0.29296875 C10.53722031 0.06104776 11.80723194 0.77759994 14 3 C15.60301911 7.38325537 15.29960869 11.16109566 13.75 15.5 C9.49305125 19.36995341 5.66475873 18.86512479 0 19 C0 12.73 0 6.46 0 0 Z " fill="#FDFCF4" transform="translate(350,263)" stroke="#FDFCF4" stroke-width="3" />
<path d="M0 0 C0.556875 0.268125 1.11375 0.53625 1.6875 0.8125 C1.6875 1.4725 1.6875 2.1325 1.6875 2.8125 C3.3375 3.1425 4.9875 3.4725 6.6875 3.8125 C7.0175 5.4625 7.3475 7.1125 7.6875 8.8125 C6.3675 9.1425 5.0475 9.4725 3.6875 9.8125 C3.3575 17.4025 3.0275 24.9925 2.6875 32.8125 C1.0375 32.8125 -0.6125 32.8125 -2.3125 32.8125 C-2.3125 24.8925 -2.3125 16.9725 -2.3125 8.8125 C-3.9625 9.1425 -5.6125 9.4725 -7.3125 9.8125 C-7.3125 10.4725 -7.3125 11.1325 -7.3125 11.8125 C-8.6325 11.4825 -9.9525 11.1525 -11.3125 10.8125 C-4.30412679 -0.34898325 -4.30412679 -0.34898325 0 0 Z " fill="#E0B351" transform="translate(410.3125,136.1875)" stroke="#E0B351" stroke-width="3" />
<path d="M0 0 C0.33 0 0.66 0 1 0 C1.02505615 0.92748047 1.0501123 1.85496094 1.07592773 2.81054688 C1.17163362 6.28460539 1.2708291 9.7585292 1.37231445 13.23242188 C1.41535863 14.72977874 1.45705201 16.22717513 1.49731445 17.72460938 C1.55576498 19.88944356 1.61923453 22.05408434 1.68359375 24.21875 C1.72025146 25.51748047 1.75690918 26.81621094 1.79467773 28.15429688 C2.00817036 32.15303143 2.457997 36.0343126 3 40 C4.65 40.33 6.3 40.66 8 41 C8 34.07 8 27.14 8 20 C8.33 20 8.66 20 9 20 C9 26.6 9 33.2 9 40 C14.04052172 39.67267434 14.04052172 39.67267434 19.08081055 39.34179688 C22.7269546 39.10944682 26.34645282 38.94235034 30 39 C30 38.34 30 37.68 30 37 C30.99 37 31.98 37 33 37 C33 36.01 33 35.02 33 34 C33.66 34 34.32 34 35 34 C34.85769192 32.58297487 34.71099254 31.1663904 34.5625 29.75 C34.48128906 28.96109375 34.40007812 28.1721875 34.31640625 27.359375 C34.02365007 25.17635361 33.57935581 23.1226818 33 21 C35 22.5 35 22.5 37 25 C37.62239078 29.82352855 37.52247556 31.97439983 35.3125 36.3125 C31.06600342 41.24761765 26.32888307 42.96207306 20 44 C15.66263124 44.23208107 11.34193018 44.18965646 7 44.125 C5.84371094 44.11597656 4.68742187 44.10695313 3.49609375 44.09765625 C0.66384353 44.07424922 -2.16796619 44.04145995 -5 44 C-5 43.01 -5 42.02 -5 41 C-3.68 40.34 -2.36 39.68 -1 39 C-0.67 26.13 -0.34 13.26 0 0 Z " fill="#C3A560" transform="translate(292,264)" stroke="#C3A560" stroke-width="3" />
<path d="M0 0 C0.67740234 0.00064453 1.35480469 0.00128906 2.05273438 0.00195312 C13.97987186 0.10487186 13.97987186 0.10487186 16.0625 2.1875 C16.29731693 4.37042774 16.47613323 6.55953174 16.625 8.75 C16.70878906 9.94753906 16.79257812 11.14507812 16.87890625 12.37890625 C16.93949219 13.30574219 17.00007812 14.23257812 17.0625 15.1875 C15.7425 15.5175 14.4225 15.8475 13.0625 16.1875 C12.44401042 14.46223958 11.82552083 12.73697917 11.20703125 11.01171875 C9.56013993 8.38681005 7.86146945 7.48716134 5.0625 6.1875 C1.88512524 5.67868022 1.88512524 5.67868022 -1.4375 5.75 C-2.5409375 5.73066406 -3.644375 5.71132813 -4.78125 5.69140625 C-9.43724266 6.42322688 -11.70311719 8.95311719 -14.9375 12.1875 C-14.9375 10.5375 -14.9375 8.8875 -14.9375 7.1875 C-14.2775 7.1875 -13.6175 7.1875 -12.9375 7.1875 C-12.9375 6.5275 -12.9375 5.8675 -12.9375 5.1875 C-15.93082739 6.1852758 -16.88516315 6.9397025 -18.9375 9.1875 C-19.5975 8.5275 -20.2575 7.8675 -20.9375 7.1875 C-14.05743729 1.95865234 -8.7952373 -0.15809793 0 0 Z " fill="#CFB877" transform="translate(503.9375,257.8125)" stroke="#CFB877" stroke-width="3" />
<path d="M0 0 C2.64 0 5.28 0 8 0 C7.67 0.99 7.34 1.98 7 3 C6.91432754 4.36592183 6.88226353 5.73564858 6.88647461 7.10424805 C6.88655014 7.92487228 6.88662567 8.74549652 6.88670349 9.59098816 C6.89186478 10.47232925 6.89702606 11.35367035 6.90234375 12.26171875 C6.9037587 13.16751175 6.90517365 14.07330475 6.90663147 15.00654602 C6.91222999 17.90023091 6.92478219 20.79383849 6.9375 23.6875 C6.94251519 25.64908742 6.94707807 27.61067606 6.95117188 29.57226562 C6.96219893 34.38154021 6.97946253 39.190757 7 44 C5.35 44 3.7 44 2 44 C0.86980573 41.73961146 0.84731043 40.42881174 0.79467773 37.91748047 C0.77473251 37.07675995 0.75478729 36.23603943 0.73423767 35.36984253 C0.71752518 34.46146637 0.70081268 33.55309021 0.68359375 32.6171875 C0.66281265 31.68778351 0.64203156 30.75837952 0.62062073 29.80081177 C0.55512354 26.8256179 0.49623948 23.85033423 0.4375 20.875 C0.39431494 18.86066772 0.35070066 16.84634459 0.30664062 14.83203125 C0.19944197 9.88811337 0.09817499 4.94410497 0 0 Z " fill="#D9AD4D" transform="translate(395,261)" stroke="#D9AD4D" stroke-width="3" />
<path d="M0 0 C2 2 2 2 2.22705078 5.71533203 C2.22673351 7.31286052 2.21539982 8.91041027 2.1953125 10.5078125 C2.1924826 11.34843231 2.18965271 12.18905212 2.18673706 13.05514526 C2.1755243 15.74524046 2.15041803 18.4350051 2.125 21.125 C2.1149716 22.94660978 2.10584551 24.76822477 2.09765625 26.58984375 C2.07558142 31.06002358 2.04104434 35.52995571 2 40 C4.88334593 39.87369597 7.76578434 39.73829048 10.6484375 39.59765625 C11.45982178 39.56305298 12.27120605 39.52844971 13.10717773 39.49279785 C18.88026003 39.20136118 23.6445658 38.28101827 29 36 C29 36.99 29 37.98 29 39 C30.32 39.33 31.64 39.66 33 40 C31.58398286 40.48108275 30.16715563 40.95978141 28.75 41.4375 C27.96109375 41.70433594 27.1721875 41.97117187 26.359375 42.24609375 C22.13845758 43.59483061 18.60220482 44.12041941 14.140625 44.09765625 C13.02558594 44.09443359 11.91054688 44.09121094 10.76171875 44.08789062 C9.60285156 44.07951172 8.44398438 44.07113281 7.25 44.0625 C6.07566406 44.05798828 4.90132813 44.05347656 3.69140625 44.04882812 C0.79421928 44.03705094 -2.10286454 44.02060326 -5 44 C-5.495 42.515 -5.495 42.515 -6 41 C-3.525 40.505 -3.525 40.505 -1 40 C-0.67 26.8 -0.34 13.6 0 0 Z " fill="#C3A660" transform="translate(423,264)" stroke="#C3A660" stroke-width="3" />
<path d="M0 0 C8.1021987 -0.60464169 8.1021987 -0.60464169 12.0625 2.0625 C14.492403 5.74654649 14.70930433 7.66536242 14 12 C12.625 14.375 12.625 14.375 10 16 C6.63483687 16.62239694 3.43382537 16.81927235 0 17 C0 11.39 0 5.78 0 0 Z " fill="#FDFCF5" transform="translate(302,263)" stroke="#FDFCF5" stroke-width="3" />
<path d="M0 0 C11.55 0 23.1 0 35 0 C35 3.63 35 7.26 35 11 C32 10 32 10 30.125 7.5 C27.27898566 4.42346737 24.23138291 4.48168041 20.1875 4.1875 C18.145625 4.125625 16.10375 4.06375 14 4 C14 9.61 14 15.22 14 21 C13.67 21 13.34 21 13 21 C13 14.73 13 8.46 13 2 C11.02 2.33 9.04 2.66 7 3 C7 14.22 7 25.44 7 37 C6.67 37 6.34 37 6 37 C5.97494385 36.07662842 5.9498877 35.15325684 5.92407227 34.2019043 C5.82890955 30.77453584 5.72967786 27.34733539 5.62768555 23.92016602 C5.5843867 22.43713985 5.54270801 20.95406546 5.50268555 19.47094727 C5.44486042 17.33855661 5.38120168 15.20640758 5.31640625 13.07421875 C5.27974854 11.79119873 5.24309082 10.50817871 5.20532227 9.1862793 C5.13438766 5.97888449 5.13438766 5.97888449 4 3 C1.98491642 2.26676204 1.98491642 2.26676204 0 2 C0 1.34 0 0.68 0 0 Z " fill="#D1AE60" transform="translate(532,259)" stroke="#D1AE60" stroke-width="3" />
<path d="M0 0 C0.99 0.495 0.99 0.495 2 1 C2 2.32 2 3.64 2 5 C2.66 5 3.32 5 4 5 C4 5.66 4 6.32 4 7 C5.00256836 6.83773926 6.00513672 6.67547852 7.03808594 6.50830078 C13.78980643 5.67111993 20.59898782 5.85639827 27.390625 5.8671875 C28.90069596 5.86651187 30.41076681 5.8655397 31.9208374 5.86428833 C35.08460527 5.86281813 38.24834482 5.86494046 41.41210938 5.86962891 C45.40581811 5.87526775 49.39945931 5.87199477 53.39316559 5.86617661 C69.6182232 5.84624423 85.8042204 5.88663526 102 7 C102 7.33 102 7.66 102 8 C52.005 8.495 52.005 8.495 1 9 C0.67 6.03 0.34 3.06 0 0 Z " fill="#D7B156" transform="translate(368,231)" stroke="#D7B156" stroke-width="3" />
<path d="M0 0 C0.73075648 2.3140622 1.40138258 4.64828869 2 7 C3.98 7 5.96 7 8 7 C8 7.66 8 8.32 8 9 C3.62575083 9.22673326 -0.74931272 9.42813881 -5.125 9.625 C-6.98125 9.72167969 -6.98125 9.72167969 -8.875 9.8203125 C-10.07382812 9.871875 -11.27265625 9.9234375 -12.5078125 9.9765625 C-13.60754395 10.02893066 -14.70727539 10.08129883 -15.84033203 10.13525391 C-19.22770511 9.99025277 -21.84995159 9.21602659 -25 8 C-22.80715898 5.80715898 -21.60455041 5.43026121 -18.6875 4.5625 C-15.92255235 3.69376844 -13.85774731 2.91193881 -11.375 1.375 C-7.86692703 -0.65598961 -3.75957442 -1.87978721 0 0 Z " fill="#DDB353" transform="translate(350,190)" stroke="#DDB353" stroke-width="3" />
<path d="M0 0 C1.98 0 3.96 0 6 0 C6.33 0.99 6.66 1.98 7 3 C7.66 3.33 8.32 3.66 9 4 C9 4.66 9 5.32 9 6 C9.66 6.33 10.32 6.66 11 7 C14.1814893 9.12099287 14.79385404 10.17273859 15.7265625 13.78125 C16.27150908 18.20310222 15.58785146 22.6070019 15 27 C13.35 27.33 11.7 27.66 10 28 C9.67 28.99 9.34 29.98 9 31 C8.67 31 8.34 31 8 31 C8.96355353 18.33029613 8.96355353 18.33029613 10 13 C9.01 12.67 8.02 12.34 7 12 C6.71125 11.071875 6.4225 10.14375 6.125 9.1875 C4.79416705 5.41680665 3.1555991 4.32517828 0 2 C0 1.34 0 0.68 0 0 Z " fill="#DBAE4E" transform="translate(451,263)" stroke="#DBAE4E" stroke-width="3" />
<path d="M0 0 C4.18744075 -0.05840224 8.37477565 -0.09373166 12.5625 -0.125 C13.74392578 -0.14175781 14.92535156 -0.15851563 16.14257812 -0.17578125 C22.15396759 -0.2094585 27.34183122 -0.11038894 33 2 C33 2.99 33 3.98 33 5 C26.73 4.67 20.46 4.34 14 4 C14 17.86 14 31.72 14 46 C13.67 46 13.34 46 13 46 C13 31.81 13 17.62 13 3 C10.69 3 8.38 3 6 3 C6 3.99 6 4.98 6 6 C5.34 6 4.68 6 4 6 C4 5.34 4 4.68 4 4 C2.68 3.67 1.36 3.34 0 3 C0 2.01 0 1.02 0 0 Z " fill="#DBBD78" transform="translate(418,258)" stroke="#DBBD78" stroke-width="3" />
<path d="M0 0 C1.40596436 0.03867188 1.40596436 0.03867188 2.84033203 0.078125 C3.80342285 0.09101563 4.76651367 0.10390625 5.75878906 0.1171875 C16.2240834 0.33411992 26.62812139 1.31009922 37.02783203 2.453125 C37.02783203 2.783125 37.02783203 3.113125 37.02783203 3.453125 C29.76783203 3.783125 22.50783203 4.113125 15.02783203 4.453125 C17.66783203 4.783125 20.30783203 5.113125 23.02783203 5.453125 C23.02783203 5.783125 23.02783203 6.113125 23.02783203 6.453125 C11.83257633 6.70252426 1.10257493 6.12253443 -9.97216797 4.453125 C-7.81506065 -0.35522875 -4.70837268 -0.01393267 0 0 Z " fill="#D4B365" transform="translate(370.97216796875,197.546875)" stroke="#D4B365" stroke-width="3" />
<path d="M0 0 C0.99 0 1.98 0 3 0 C3 0.66 3 1.32 3 2 C2.34 2 1.68 2 1 2 C1 3.65 1 5.3 1 7 C0.34 7 -0.32 7 -1 7 C-1.03440186 7.55985596 -1.06880371 8.11971191 -1.10424805 8.6965332 C-1.27420885 11.23751315 -1.48041119 13.77428763 -1.6875 16.3125 C-1.74099609 17.19357422 -1.79449219 18.07464844 -1.84960938 18.98242188 C-2.06312042 21.42387422 -2.30875666 23.64773457 -3 26 C-6.58998145 29 -6.58998145 29 -9 29 C-9.10901505 26.16560863 -9.18777904 23.33549797 -9.25 20.5 C-9.28351563 19.70851563 -9.31703125 18.91703125 -9.3515625 18.1015625 C-9.45153439 12.00327706 -8.06910431 8.2682263 -5 3 C-3.68 3 -2.36 3 -1 3 C-0.67 2.01 -0.34 1.02 0 0 Z " fill="#D9AF4E" transform="translate(488,263)" stroke="#D9AF4E" stroke-width="3" />
<path d="M0 0 C0 2.64 0 5.28 0 8 C-0.66 8 -1.32 8 -2 8 C-2.495 5.03 -2.495 5.03 -3 2 C-3.99 2.53625 -4.98 3.0725 -6 3.625 C-12.75658356 6.99733359 -19.90248419 9.45392249 -27 12 C-27.70302246 12.25523437 -28.40604492 12.51046875 -29.13037109 12.7734375 C-31.16587862 13.50794289 -33.20647575 14.22564246 -35.25 14.9375 C-37.05210937 15.56978516 -37.05210937 15.56978516 -38.890625 16.21484375 C-42.00066223 17.00016722 -43.05960021 16.89412644 -46 16 C-45.41210693 15.76925781 -44.82421387 15.53851563 -44.21850586 15.30078125 C-41.45442213 14.20970266 -38.69523055 13.10704113 -35.9375 12 C-34.93630127 11.59861816 -33.93510254 11.19723633 -32.90356445 10.78369141 C-26.910968 8.33359463 -21.27966553 5.62690979 -15.6875 2.375 C-10.04291978 -0.87754988 -6.37394334 -1.78917708 0 0 Z " fill="#CFBC8C" transform="translate(377,168)" stroke="#CFBC8C" stroke-width="3" />
<path d="M0 0 C1.32 0 2.64 0 4 0 C4 0.66 4 1.32 4 2 C5.65 1.67 7.3 1.34 9 1 C12.53286034 5.56327794 12.32374517 9.49633208 12 15 C11.34 15 10.68 15 10 15 C10 15.99 10 16.98 10 18 C9.01 18 8.02 18 7 18 C7 18.66 7 19.32 7 20 C6.01 20 5.02 20 4 20 C4 14.72 4 9.44 4 4 C3.34 4 2.68 4 2 4 C2 3.34 2 2.68 2 2 C1.34 2 0.68 2 0 2 C0 1.34 0 0.68 0 0 Z " fill="#D6AB4E" transform="translate(315,283)" stroke="#D6AB4E" stroke-width="3" />
<path d="M0 0 C-0.33 0.66 -0.66 1.32 -1 2 C-1.95261719 1.51789063 -2.90523438 1.03578125 -3.88671875 0.5390625 C-5.15359159 -0.09906604 -6.42052171 -0.73708086 -7.6875 -1.375 C-8.31333984 -1.69210938 -8.93917969 -2.00921875 -9.58398438 -2.3359375 C-30.11953736 -12.65747199 -53.63691423 -10.34399319 -76 -10 C-76 -10.33 -76 -10.66 -76 -11 C-49.04387827 -14.49431208 -23.89618357 -14.45694266 0 0 Z " fill="#D7BB7A" transform="translate(460,189)" stroke="#D7BB7A" stroke-width="3" />
<path d="M0 0 C2.31 0 4.62 0 7 0 C7.10806144 2.91765891 7.18732877 5.83131125 7.25 8.75 C7.28351563 9.575 7.31703125 10.4 7.3515625 11.25 C7.45052457 17.38564831 7.45052457 17.38564831 5.109375 20.578125 C3 22 3 22 1 22 C0.67 14.74 0.34 7.48 0 0 Z " fill="#DCB04E" transform="translate(342,261)" stroke="#DCB04E" stroke-width="3" />
<path d="M0 0 C0.33 0 0.66 0 1 0 C1 12.87 1 25.74 1 39 C3.31 39.66 5.62 40.32 8 41 C7.67 41.99 7.34 42.98 7 44 C0.73 44 -5.54 44 -12 44 C-12 43.01 -12 42.02 -12 41 C-9.6875 39.25 -9.6875 39.25 -7 38 C-6.01 38.33 -5.02 38.66 -4 39 C-4 39.66 -4 40.32 -4 41 C-2.02 40.505 -2.02 40.505 0 40 C0 26.8 0 13.6 0 0 Z " fill="#D4AE57" transform="translate(401,264)" stroke="#D4AE57" stroke-width="3" />
<path d="M0 0 C3.96 0 7.92 0 12 0 C7 5 7 5 5.25 6.6875 C2.38579799 9.69491211 2.86035571 12.67913844 2.8984375 16.6015625 C3.03363509 19.79430558 3.46400149 22.85100877 4 26 C1.22138234 23.60028475 0.09797366 21.49655132 -1 18 C-1.16299759 15.229041 -1.23503372 12.57696117 -1.1875 9.8125 C-1.1865332 8.72678711 -1.1865332 8.72678711 -1.18554688 7.61914062 C-1.14086152 2.28172304 -1.14086152 2.28172304 0 0 Z " fill="#D3BB86" transform="translate(302,207)" stroke="#D3BB86" stroke-width="3" />
<path d="M0 0 C3.48707152 0.3170065 5.58966239 1.29540155 8.3125 3.375 C10.90298515 5.35194919 13.22758116 6.57433923 16.3125 7.625 C20 9 20 9 22 12 C24.28734436 13.1415737 26.61836071 14.02145051 29.00390625 14.9375 C31 16 31 16 32 19 C29.57933922 18.55172949 27.95837176 17.97306408 25.875 16.625 C23.21600269 15.12208848 21.17096965 14.4516546 18.25 13.6875 C11.54533773 11.76616395 5.41176725 8.52364929 1.4375 2.625 C0.963125 1.75875 0.48875 0.8925 0 0 Z " fill="#DAB35C" transform="translate(429,152)" stroke="#DAB35C" stroke-width="3" />
<path d="M0 0 C1.98 0 3.96 0 6 0 C6 5.94 6 11.88 6 18 C5.01 18 4.02 18 3 18 C3 18.66 3 19.32 3 20 C1.68 20 0.36 20 -1 20 C-0.67 13.4 -0.34 6.8 0 0 Z " fill="#D5AA4B" transform="translate(513,285)" stroke="#D5AA4B" stroke-width="3" />
<path d="M0 0 C5.61 0 11.22 0 17 0 C17 0.66 17 1.32 17 2 C15.02 2 13.04 2 11 2 C11 8.6 11 15.2 11 22 C12.32 22 13.64 22 15 22 C14.67 22.99 14.34 23.98 14 25 C13.01 25 12.02 25 11 25 C10.67 24.34 10.34 23.68 10 23 C9.34 23.99 8.68 24.98 8 26 C7.34 26 6.68 26 6 26 C7.875 20.125 7.875 20.125 9 19 C9.15582303 17.65984779 9.25044142 16.31241097 9.31640625 14.96484375 C9.35830078 14.15595703 9.40019531 13.34707031 9.44335938 12.51367188 C9.50233398 11.2384668 9.50233398 11.2384668 9.5625 9.9375 C9.60568359 9.08349609 9.64886719 8.22949219 9.69335938 7.34960938 C9.79976702 5.23327963 9.90041731 3.11666187 10 1 C7.69 1 5.38 1 3 1 C3 14.86 3 28.72 3 43 C2.67 43 2.34 43 2 43 C1.97494385 41.8039917 1.9498877 40.6079834 1.92407227 39.37573242 C1.82996148 34.94202805 1.72974964 30.508479 1.62768555 26.07495117 C1.5843506 24.15539175 1.54267448 22.23579415 1.50268555 20.31616211 C1.44494822 17.55831386 1.38126365 14.80065759 1.31640625 12.04296875 C1.29969376 11.18350143 1.28298126 10.32403412 1.26576233 9.43852234 C1.24581711 8.63791885 1.22587189 7.83731537 1.20532227 7.01245117 C1.18977798 6.3085173 1.1742337 5.60458344 1.15821838 4.87931824 C1.05518396 2.77300917 1.05518396 2.77300917 0 0 Z " fill="#CBAE67" transform="translate(339,260)" stroke="#CBAE67" stroke-width="3" />
<path d="M0 0 C1.09054687 0.43570313 2.18109375 0.87140625 3.3046875 1.3203125 C13.3909281 5.31553369 23.54015001 8.95899932 33.85986328 12.30273438 C37.58000476 13.51477226 41.28965874 14.75834397 45 16 C36.33715897 18.88761368 21.55388084 11.73494919 13.125 9.0625 C12.06063721 8.73902588 10.99627441 8.41555176 9.8996582 8.08227539 C8.40631958 7.59488892 8.40631958 7.59488892 6.8828125 7.09765625 C5.98965332 6.81414307 5.09649414 6.53062988 4.17626953 6.23852539 C1.34317452 4.62619748 0.89791218 3.06129371 0 0 Z " fill="#D0B87E" transform="translate(488,180)" stroke="#D0B87E" stroke-width="3" />
<path d="M0 0 C0.66 0.66 1.32 1.32 2 2 C-1.1656998 8.10001955 -5.97525929 10.96307228 -12 14 C-14.81965291 14.75337601 -17.0614662 14.94455597 -20 15 C-20.33 14.01 -20.66 13.02 -21 12 C-11.46219173 6.07005482 -11.46219173 6.07005482 -7.125 4.3125 C-4.33358646 3.14010631 -2.30311689 1.93461818 0 0 Z " fill="#D8B96E" transform="translate(390,154)" stroke="#D8B96E" stroke-width="3" />
<path d="M0 0 C6.76923077 -0.30769231 6.76923077 -0.30769231 10 2 C11.80114194 4.9461536 12.27296958 7.19104737 12.25 10.625 C12.25515625 11.40101563 12.2603125 12.17703125 12.265625 12.9765625 C12 15 12 15 10 17 C8.68 17 7.36 17 6 17 C5.85304688 15.78763672 5.85304688 15.78763672 5.703125 14.55078125 C4.69576857 6.46310609 4.69576857 6.46310609 0 0 Z " fill="#DCB14F" transform="translate(361,261)" stroke="#DCB14F" stroke-width="3" />
<path d="M0 0 C8.20037776 1.10815916 16.07193875 2.61681525 24 5 C24 5.33 24 5.66 24 6 C21.36 6 18.72 6 16 6 C16 6.66 16 7.32 16 8 C15.40316406 7.86722656 14.80632813 7.73445312 14.19140625 7.59765625 C0.30709223 4.77128029 -13.88749458 4.82905444 -28 5 C-28 4.67 -28 4.34 -28 4 C-14.73670871 2.07079399 -1.30088633 2.87992536 12 4 C6.06 2.515 6.06 2.515 0 1 C0 0.67 0 0.34 0 0 Z " fill="#D2B677" transform="translate(512,202)" stroke="#D2B677" stroke-width="3" />
<path d="M0 0 C0 3.96 0 7.92 0 12 C-0.99 12 -1.98 12 -3 12 C-3.66 11.01 -4.32 10.02 -5 9 C-7.87759068 8.19663887 -7.87759068 8.19663887 -11.125 7.8125 C-14.033125 7.4103125 -14.033125 7.4103125 -17 7 C-17 13.6 -17 20.2 -17 27 C-17.33 27 -17.66 27 -18 27 C-18 20.07 -18 13.14 -18 6 C-15.03 6 -12.06 6 -9 6 C-9 5.34 -9 4.68 -9 4 C-3.70588235 0 -3.70588235 0 0 0 Z " fill="#C2A86D" transform="translate(563,277)" stroke="#C2A86D" stroke-width="3" />
<path d="M0 0 C2.4375 0.375 2.4375 0.375 5 1 C5.33 1.66 5.66 2.32 6 3 C4.02 3 2.04 3 0 3 C0 2.01 0 1.02 0 0 Z M-19 2 C-16.39576408 1.97302863 -13.79180756 1.95317511 -11.1875 1.9375 C-10.44951172 1.92912109 -9.71152344 1.92074219 -8.95117188 1.91210938 C-4.1229652 1.89026229 -1.26700061 1.92304948 2.5 5.125 C5.32292022 8.37135825 6.40353993 11.04686078 8 15 C8.66 15.33 9.32 15.66 10 16 C9.85805236 18.06277107 9.71127784 20.12521031 9.5625 22.1875 C9.44068359 23.91033203 9.44068359 23.91033203 9.31640625 25.66796875 C9.04596188 28.51598171 8.62478253 31.21210482 8 34 C7.01 33.67 6.02 33.34 5 33 C5.5259375 31.576875 5.5259375 31.576875 6.0625 30.125 C8.00182325 23.3304916 6.56417568 15.47791751 4 9 C2.26838037 7.63359102 2.26838037 7.63359102 0 7 C-0.804375 6.484375 -1.60875 5.96875 -2.4375 5.4375 C-7.80544989 3.27148513 -13.25946458 3.24699633 -19 3 C-19 2.67 -19 2.34 -19 2 Z " fill="#CDB170" transform="translate(451,260)" stroke="#CDB170" stroke-width="3" />
<path d="M0 0 C0.66 0 1.32 0 2 0 C1.67 0.99 1.34 1.98 1 3 C0.84586124 5.87438548 0.74252715 8.72898986 0.68359375 11.60546875 C0.66281265 12.44467361 0.64203156 13.28387848 0.62062073 14.14851379 C0.55525982 16.82809294 0.49630286 19.50776969 0.4375 22.1875 C0.39430198 24.00456737 0.35068727 25.82162488 0.30664062 27.63867188 C0.1995922 32.09234799 0.09828681 36.54612226 0 41 C1.65 41.33 3.3 41.66 5 42 C5.33 42.99 5.66 43.98 6 45 C5.01 45 4.02 45 3 45 C3.33 44.34 3.66 43.68 4 43 C2.7934375 42.814375 2.7934375 42.814375 1.5625 42.625 C0.716875 42.41875 -0.12875 42.2125 -1 42 C-2.6301972 38.7396056 -2.16307421 35.1453944 -2.16796875 31.5625 C-2.17129715 30.72662354 -2.17462555 29.89074707 -2.17805481 29.02954102 C-2.18312107 27.26091055 -2.18546323 25.49227052 -2.18530273 23.72363281 C-2.1874912 21.01090865 -2.20565527 18.29858977 -2.22460938 15.5859375 C-2.2275429 13.86979306 -2.22952797 12.15364669 -2.23046875 10.4375 C-2.23765427 9.62289307 -2.24483978 8.80828613 -2.25224304 7.96899414 C-2.22882646 2.22882646 -2.22882646 2.22882646 0 0 Z " fill="#F7EFD6" transform="translate(405,262)" stroke="#F7EFD6" stroke-width="3" />
<path d="M0 0 C0.99 0 1.98 0 3 0 C3.05422947 1.4370809 3.09289723 2.87475462 3.125 4.3125 C3.14820313 5.11300781 3.17140625 5.91351563 3.1953125 6.73828125 C3 9 3 9 1 12 C-1.69540315 12.26686213 -4.15847464 12.34818073 -6.8515625 12.29296875 C-7.62559418 12.28872391 -8.39962585 12.28447906 -9.19711304 12.28010559 C-11.67342677 12.26328998 -14.14893158 12.22563395 -16.625 12.1875 C-18.30207159 12.17245682 -19.97915592 12.15876778 -21.65625 12.14648438 C-25.77114581 12.11337721 -29.88543569 12.06157637 -34 12 C-34 11.01 -34 10.02 -34 9 C-32.68 8.67 -31.36 8.34 -30 8 C-30 8.33 -30 8.66 -30 9 C-19.77 9.33 -9.54 9.66 1 10 C1.33 7.36 1.66 4.72 2 2 C1.34 2 0.68 2 0 2 C0 1.34 0 0.68 0 0 Z " fill="#C8B080" transform="translate(566,296)" stroke="#C8B080" stroke-width="3" />
<path d="M0 0 C2.31 0.33 4.62 0.66 7 1 C7 1.66 7 2.32 7 3 C7.66 3 8.32 3 9 3 C9.8814688 5.64440639 10.16174818 7.28060752 10.1875 10 C10.20167969 10.680625 10.21585937 11.36125 10.23046875 12.0625 C10 14 10 14 8 17 C6.68 17 5.36 17 4 17 C3.97311849 15.35425434 3.95365877 13.70838587 3.9375 12.0625 C3.92589844 11.14597656 3.91429687 10.22945313 3.90234375 9.28515625 C4 7 4 7 5 6 C4.175 5.195625 3.35 4.39125 2.5 3.5625 C0 1 0 1 0 0 Z " fill="#DAB14E" transform="translate(313,261)" stroke="#DAB14E" stroke-width="3" />
<path d="M0 0 C2.97922593 -0.02683987 5.95821295 -0.04676037 8.9375 -0.0625 C9.78763672 -0.07087891 10.63777344 -0.07925781 11.51367188 -0.08789062 C12.32255859 -0.09111328 13.13144531 -0.09433594 13.96484375 -0.09765625 C14.7137085 -0.10289307 15.46257324 -0.10812988 16.23413086 -0.11352539 C18 0 18 0 19 1 C19.07244053 3.01964199 19.08377188 5.04167124 19.0625 7.0625 C19.05347656 8.16722656 19.04445313 9.27195312 19.03515625 10.41015625 C19.02355469 11.26480469 19.01195312 12.11945313 19 13 C18.34 13 17.68 13 17 13 C16.7525 12.2575 16.505 11.515 16.25 10.75 C14.9016807 7.78369755 13.35816151 6.20602206 11 4 C10.67 3.34 10.34 2.68 10 2 C6.7 2 3.4 2 0 2 C0 1.34 0 0.68 0 0 Z " fill="#D3B165" transform="translate(501,259)" stroke="#D3B165" stroke-width="3" />
<path d="M0 0 C4.90784443 0.56541987 8.93617794 2.11743625 13.3125 4.3125 C13.94478516 4.60833984 14.57707031 4.90417969 15.22851562 5.20898438 C19.7811407 7.46821847 19.7811407 7.46821847 20.91796875 10.23046875 C20.94503906 10.81441406 20.97210938 11.39835938 21 12 C12.97928527 10.05797655 5.54549287 7.33160505 -2 4 C-0.68 3.34 0.64 2.68 2 2 C1.34 1.34 0.68 0.68 0 0 Z " fill="#D6B975" transform="translate(468,172)" stroke="#D6B975" stroke-width="3" />
<path d="M0 0 C13.95738244 -0.68830927 13.95738244 -0.68830927 17.875 1.8125 C20 4 20 4 20 7 C18.4375 7.75 18.4375 7.75 16 8 C14.30269547 7.02078585 12.607846 6.03557557 10.94921875 4.9921875 C7.71478194 3.34580083 4.59249474 3.25210489 1 3 C0.67 2.01 0.34 1.02 0 0 Z " fill="#D4B162" transform="translate(505,214)" stroke="#D4B162" stroke-width="3" />
<path d="M0 0 C3.96 0 7.92 0 12 0 C12 0.66 12 1.32 12 2 C11.34 2 10.68 2 10 2 C10 6.62 10 11.24 10 16 C9.67 16 9.34 16 9 16 C8.67 12.37 8.34 8.74 8 5 C7.54625 5.825 7.0925 6.65 6.625 7.5 C6.08875 8.325 5.5525 9.15 5 10 C4.34 10 3.68 10 3 10 C3 8.02 3 6.04 3 4 C2.34 4 1.68 4 1 4 C0.67 2.68 0.34 1.36 0 0 Z " fill="#DBAF51" transform="translate(290,260)" stroke="#DBAF51" stroke-width="3" />
<path d="M0 0 C0.33 0.66 0.66 1.32 1 2 C0.53980469 2.83789062 0.07960938 3.67578125 -0.39453125 4.5390625 C-2.42512796 8.9164559 -2.55453515 12.61105939 -2.6875 17.375 C-2.72166016 18.20644531 -2.75582031 19.03789062 -2.79101562 19.89453125 C-2.87287146 21.92923351 -2.93812701 23.96459208 -3 26 C-2.34 26 -1.68 26 -1 26 C-0.34 28.64 0.32 31.28 1 34 C-4.63163368 28.55608744 -5.49582248 24.91851128 -5.96484375 17.2265625 C-6.03905395 10.41571535 -3.44969211 5.63449711 0 0 Z " fill="#CDB172" transform="translate(482,266)" stroke="#CDB172" stroke-width="3" />
<path d="M0 0 C11.55 0 23.1 0 35 0 C35 3.63 35 7.26 35 11 C31.26360784 9.75453595 30.81243487 8.36595047 29 5 C30.32 5 31.64 5 33 5 C33.33 3.68 33.66 2.36 34 1 C24.43 1 14.86 1 5 1 C5 2.65 5 4.3 5 6 C4.67 5.01 4.34 4.02 4 3 C1.98491642 2.26676204 1.98491642 2.26676204 0 2 C0 1.34 0 0.68 0 0 Z " fill="#D5BD7F" transform="translate(532,259)" stroke="#D5BD7F" stroke-width="3" />
<path d="M0 0 C0.85078125 0.39832031 1.7015625 0.79664063 2.578125 1.20703125 C11.11407612 5.00291474 19.18772685 6.97329826 28.47167969 8.06176758 C29.2918457 8.15997803 30.11201172 8.25818848 30.95703125 8.359375 C31.68897705 8.43639648 32.42092285 8.51341797 33.17504883 8.59277344 C35 9 35 9 37 11 C23.15552815 11.42817954 11.86679693 9.16952315 0 2 C0 1.34 0 0.68 0 0 Z " fill="#D5B670" transform="translate(461,190)" stroke="#D5B670" stroke-width="3" />
<path d="M0 0 C0.0825 0.94875 0.165 1.8975 0.25 2.875 C0.4975 3.90625 0.745 4.9375 1 6 C2.91666667 7.16666667 2.91666667 7.16666667 5 8 C6.25 10.125 6.25 10.125 7 12 C4.1875 12.3125 4.1875 12.3125 1 12 C-0.5625 9.6875 -0.5625 9.6875 -2 7 C-3.66324401 5.99431758 -5.32936253 4.99335201 -7 4 C-7 3.01 -7 2.02 -7 1 C-4.50935112 0.31292445 -2.62113708 0 0 0 Z " fill="#D7AE4E" transform="translate(362,282)" stroke="#D7AE4E" stroke-width="3" />
<path d="M0 0 C0.33 0 0.66 0 1 0 C0.95875 0.94875 0.9175 1.8975 0.875 2.875 C0.65026182 6.10244856 0.65026182 6.10244856 3 8 C-9.54 8 -22.08 8 -35 8 C-35 7.67 -35 7.34 -35 7 C-33.8140625 6.93941406 -32.628125 6.87882813 -31.40625 6.81640625 C-20.93280379 6.27615687 -10.46544394 5.67844947 0 5 C0 3.35 0 1.7 0 0 Z " fill="#CBAA60" transform="translate(486,232)" stroke="#CBAA60" stroke-width="3" />
<path d="M0 0 C4.76253411 1.76390152 7.40832804 5.59334825 10.13671875 9.71875 C11.37572085 12.99285508 11.25024778 16.17717448 11.1875 19.625 C11.18685547 20.305625 11.18621094 20.98625 11.18554688 21.6875 C11.14080577 26.71838846 11.14080577 26.71838846 10 29 C9.34 29 8.68 29 8 29 C8.08378906 28.14277344 8.16757812 27.28554688 8.25390625 26.40234375 C8.78843976 20.40068264 9.23818759 14.91578513 8 9 C6.68 9 5.36 9 4 9 C3.67 7.35 3.34 5.7 3 4 C2.01 3.67 1.02 3.34 0 3 C0 2.01 0 1.02 0 0 Z " fill="#CCB172" transform="translate(457,263)" stroke="#CCB172" stroke-width="3" />
<path d="M0 0 C0.66 0 1.32 0 2 0 C2 0.99 2 1.98 2 3 C4.475 3.495 4.475 3.495 7 4 C7 4.99 7 5.98 7 7 C0.4 7 -6.2 7 -13 7 C-13 6.01 -13 5.02 -13 4 C-11.35 3.34 -9.7 2.68 -8 2 C-8 2.66 -8 3.32 -8 4 C-5.36 4.33 -2.72 4.66 0 5 C0 3.35 0 1.7 0 0 Z " fill="#C7B17E" transform="translate(349,301)" stroke="#C7B17E" stroke-width="3" />
<path d="M0 0 C0.66 0.33 1.32 0.66 2 1 C1.67 1.94875 1.34 2.8975 1 3.875 C-1.41901481 12.56943003 -0.01396289 19.11715722 4 27 C4.33 27.99 4.66 28.98 5 30 C7.37625345 31.18391223 7.37625345 31.18391223 10 32 C10.99 32.33 11.98 32.66 13 33 C12.67 33.66 12.34 34.32 12 35 C9.69 34.34 7.38 33.68 5 33 C4.67 31.68 4.34 30.36 4 29 C2.68 29 1.36 29 0 29 C-2.44239679 19.33944841 -3.57613657 9.47960012 0 0 Z " fill="#CAAF6A" transform="translate(487,270)" stroke="#CAAF6A" stroke-width="3" />
<path d="M0 0 C3.26709349 2.45032012 3.95271784 3.71157885 4.625 7.8125 C4.40578017 12.14006183 2.60544984 14.64562736 -0.33203125 17.72265625 C-2 19 -2 19 -4.875 19.4375 C-5.57625 19.293125 -6.2775 19.14875 -7 19 C-7 17.68 -7 16.36 -7 15 C-6.34 15 -5.68 15 -5 15 C-5 12.36 -5 9.72 -5 7 C-4.67 7 -4.34 7 -4 7 C-4 9.64 -4 12.28 -4 15 C-2.35 14.34 -0.7 13.68 1 13 C1.0272415 11.58344207 1.04650467 10.16672955 1.0625 8.75 C1.07410156 7.96109375 1.08570313 7.1721875 1.09765625 6.359375 C1.00385306 4.09308998 0.63241063 2.1711105 0 0 Z " fill="#D3B36B" transform="translate(371,263)" stroke="#D3B36B" stroke-width="3" />
<path d="M0 0 C0.33 0.66 0.66 1.32 1 2 C0.67 2.66 0.34 3.32 0 4 C6.6 4 13.2 4 20 4 C20 4.66 20 5.32 20 6 C11.75 6 3.5 6 -5 6 C-5 5.01 -5 4.02 -5 3 C-2.5 1.3125 -2.5 1.3125 0 0 Z " fill="#C7B27F" transform="translate(292,302)" stroke="#C7B27F" stroke-width="3" />
<path d="M0 0 C-0.25817019 3.48529763 -1.24021172 4.21465728 -3.9375 6.625 C-5.4534375 7.800625 -5.4534375 7.800625 -7 9 C-7.66 9.66 -8.32 10.32 -9 11 C-9 9.35 -9 7.7 -9 6 C-8.34 6 -7.68 6 -7 6 C-7 5.34 -7 4.68 -7 4 C-9.99332739 4.9977758 -10.94766315 5.7522025 -13 8 C-13.66 7.34 -14.32 6.68 -15 6 C-13.89932004 5.18278283 -12.79430269 4.37140549 -11.6875 3.5625 C-11.07261719 3.11003906 -10.45773437 2.65757812 -9.82421875 2.19140625 C-6.54527945 0.04991485 -3.80780612 -0.10291368 0 0 Z " fill="#D2B269" transform="translate(498,259)" stroke="#D2B269" stroke-width="3" />
<path d="M0 0 C1.4470046 0.01724203 2.8938805 0.05574956 4.33984375 0.11328125 C5.4390918 0.1277832 5.4390918 0.1277832 6.56054688 0.14257812 C11.938088 0.25615337 11.938088 0.25615337 14.27734375 1.42578125 C13.61734375 2.74578125 12.95734375 4.06578125 12.27734375 5.42578125 C11.61734375 5.09578125 10.95734375 4.76578125 10.27734375 4.42578125 C7.39364042 4.35383256 4.53494711 4.33286417 1.65234375 4.36328125 C0.44964844 4.37004883 0.44964844 4.37004883 -0.77734375 4.37695312 C-2.75914631 4.38874957 -4.74091058 4.4066852 -6.72265625 4.42578125 C-4.92011594 0.84190698 -4.07815148 0.46644125 0 0 Z " fill="#DBB253" transform="translate(367.72265625,197.57421875)" stroke="#DBB253" stroke-width="3" />
<path d="M0 0 C0.33 0 0.66 0 1 0 C0.37802877 6.33881314 -0.28542887 12.67094142 -1 19 C-1.66 19 -2.32 19 -3 19 C-4.79217969 13.83430559 -5.12029814 10.48946087 -4 5 C-3.34 5 -2.68 5 -2 5 C-1.34 3.35 -0.68 1.7 0 0 Z " fill="#D3AE5C" transform="translate(330,222)" stroke="#D3AE5C" stroke-width="3" />
<path d="M0 0 C0 0.66 0 1.32 0 2 C1.11375 2.1546875 1.11375 2.1546875 2.25 2.3125 C5.1973519 3.04933797 6.78383074 3.94799142 9 6 C9 6.66 9 7.32 9 8 C3.06 6.515 3.06 6.515 -3 5 C-3 4.34 -3 3.68 -3 3 C-5.64 3 -8.28 3 -11 3 C-10.67 2.34 -10.34 1.68 -10 1 C-6.63471927 0.46582846 -3.40372484 0 0 0 Z " fill="#D9B360" transform="translate(354,212)" stroke="#D9B360" stroke-width="3" />
<path d="M0 0 C4.08327357 -0.0580772 8.16644083 -0.09362249 12.25 -0.125 C13.98830078 -0.15013672 13.98830078 -0.15013672 15.76171875 -0.17578125 C16.87675781 -0.18222656 17.99179687 -0.18867188 19.140625 -0.1953125 C20.68024902 -0.21102295 20.68024902 -0.21102295 22.25097656 -0.22705078 C25 0 25 0 29 2 C19.43 2.33 9.86 2.66 0 3 C0 2.01 0 1.02 0 0 Z " fill="#DFCC9A" transform="translate(336,258)" stroke="#DFCC9A" stroke-width="3" />
<path d="M0 0 C2.475 0.495 2.475 0.495 5 1 C5 1.66 5 2.32 5 3 C16.30412586 6.21335557 25.40625426 6.21355096 37 5 C30.31384218 9.45743855 20.80840879 8.75268838 13 8 C7.21529821 6.62166982 3.34627104 5.02468459 0 0 Z " fill="#C3A76F" transform="translate(483,300)" stroke="#C3A76F" stroke-width="3" />
<path d="M0 0 C1.02802734 0.04833984 2.05605469 0.09667969 3.11523438 0.14648438 C4.72301758 0.2305957 4.72301758 0.2305957 6.36328125 0.31640625 C7.44673828 0.36861328 8.53019531 0.42082031 9.64648438 0.47460938 C12.32320716 0.60431841 14.99956013 0.73928558 17.67578125 0.87890625 C18.00578125 1.53890625 18.33578125 2.19890625 18.67578125 2.87890625 C9.10578125 2.87890625 -0.46421875 2.87890625 -10.32421875 2.87890625 C-7.0787982 -0.3665143 -4.35694372 -0.21664361 0 0 Z " fill="#F6F0D8" transform="translate(297.32421875,256.12109375)" stroke="#F6F0D8" stroke-width="3" />
<path d="M0 0 C0.66 0.33 1.32 0.66 2 1 C1.67 1.66 1.34 2.32 1 3 C4.63 3 8.26 3 12 3 C12.33 2.34 12.66 1.68 13 1 C13.99 1.33 14.98 1.66 16 2 C15.67 2.99 15.34 3.98 15 5 C8.73 5 2.46 5 -4 5 C-4 4.01 -4 3.02 -4 2 C-2.125 0.9375 -2.125 0.9375 0 0 Z " fill="#C5B081" transform="translate(393,303)" stroke="#C5B081" stroke-width="3" />
<path d="M0 0 C5.79145273 1.11764877 11.34026916 2.66287414 16.9375 4.5 C17.60015869 4.71358154 18.26281738 4.92716309 18.94555664 5.1472168 C21.8588768 6.1223286 23.79809373 6.79809373 26 9 C17.04586479 7.75363686 8.63990827 5.63287146 0 3 C0 2.01 0 1.02 0 0 Z " fill="#CDC0A5" transform="translate(507,188)" stroke="#CDC0A5" stroke-width="3" />
<path d="M0 0 C0 0.66 0 1.32 0 2 C-1.18078125 2.27714844 -2.3615625 2.55429688 -3.578125 2.83984375 C-5.13542016 3.2057143 -6.69271163 3.57160054 -8.25 3.9375 C-9.02730469 4.11990234 -9.80460937 4.30230469 -10.60546875 4.49023438 C-11.73662109 4.75610352 -11.73662109 4.75610352 -12.890625 5.02734375 C-13.92751465 5.27085571 -13.92751465 5.27085571 -14.98535156 5.51928711 C-16.99399101 5.9985662 -18.99756942 6.49546602 -21 7 C-20.34 5.02 -19.68 3.04 -19 1 C-18.22914063 1.01160156 -17.45828125 1.02320313 -16.6640625 1.03515625 C-15.15972656 1.04869141 -15.15972656 1.04869141 -13.625 1.0625 C-12.12839844 1.07990234 -12.12839844 1.07990234 -10.6015625 1.09765625 C-6.91272189 0.95918626 -3.88176219 -0.08438613 0 0 Z " fill="#D8B76F" transform="translate(380,185)" stroke="#D8B76F" stroke-width="3" />
<path d="M0 0 C0.66 0 1.32 0 2 0 C1.67 0.99 1.34 1.98 1 3 C0.85507877 4.40664926 0.75371069 5.8181133 0.68359375 7.23046875 C0.64169922 8.03291016 0.59980469 8.83535156 0.55664062 9.66210938 C0.49766602 10.91217773 0.49766602 10.91217773 0.4375 12.1875 C0.39431641 13.03248047 0.35113281 13.87746094 0.30664062 14.74804688 C0.20068482 16.83184433 0.0998498 18.91590103 0 21 C-1.65 21 -3.3 21 -5 21 C-5 20.34 -5 19.68 -5 19 C-4.01 19 -3.02 19 -2 19 C-2 13.39 -2 7.78 -2 2 C-1.34 2 -0.68 2 0 2 C0 1.34 0 0.68 0 0 Z " fill="#CEAE66" transform="translate(521,284)" stroke="#CEAE66" stroke-width="3" />
<path d="M0 0 C4.62 0 9.24 0 14 0 C14 0.99 14 1.98 14 3 C14.99 3 15.98 3 17 3 C17 3.66 17 4.32 17 5 C18.65 5 20.3 5 22 5 C22 5.66 22 6.32 22 7 C22.99 7.33 23.98 7.66 25 8 C22 9 22 9 19.1796875 7.85546875 C18.08914063 7.30503906 16.99859375 6.75460938 15.875 6.1875 C10.54616004 3.61557388 5.81785638 1.98607735 0 1 C0 0.67 0 0.34 0 0 Z " fill="#D6B56F" transform="translate(430,184)" stroke="#D6B56F" stroke-width="3" />
<path d="M0 0 C0.33 0 0.66 0 1 0 C1 8.25 1 16.5 1 25 C3.31 25 5.62 25 8 25 C8 25.33 8 25.66 8 26 C5.36 26 2.72 26 0 26 C-0.33 18.74 -0.66 11.48 -1 4 C-2.65 4.66 -4.3 5.32 -6 6 C-4 4 -2 2 0 0 Z " fill="#FCF5DB" transform="translate(406,146)" stroke="#FCF5DB" stroke-width="3" />
<path d="M0 0 C0.66 0 1.32 0 2 0 C2.33 0.99 2.66 1.98 3 3 C4.65 3.33 6.3 3.66 8 4 C8 4.99 8 5.98 8 7 C9.32 7 10.64 7 12 7 C12 7.66 12 8.32 12 9 C5.375 9.25 5.375 9.25 2 7 C2 6.34 2 5.68 2 5 C1.34 5 0.68 5 0 5 C0 3.35 0 1.7 0 0 Z " fill="#CEA64C" transform="translate(367,297)" stroke="#CEA64C" stroke-width="3" />
<path d="M0 0 C6.6 0 13.2 0 20 0 C20 0.99 20 1.98 20 3 C18.35 3.66 16.7 4.32 15 5 C15 4.01 15 3.02 15 2 C14.00419922 2.01740234 14.00419922 2.01740234 12.98828125 2.03515625 C4.21792619 2.12478032 4.21792619 2.12478032 0 1 C0 0.67 0 0.34 0 0 Z " fill="#DDCB96" transform="translate(389,258)" stroke="#DDCB96" stroke-width="3" />
<path d="M0 0 C1.32 0.33 2.64 0.66 4 1 C5.69057861 6.28305817 5.29188056 11.67099269 4 17 C2.02 17.33 0.04 17.66 -2 18 C-2 17.34 -2 16.68 -2 16 C-1.34773438 15.566875 -0.69546875 15.13375 -0.0234375 14.6875 C2.2259995 13.17283057 2.2259995 13.17283057 2.4609375 10.625 C2.43257813 9.75875 2.40421875 8.8925 2.375 8 C2.36210937 7.13375 2.34921875 6.2675 2.3359375 5.375 C2.13759291 2.73762919 2.13759291 2.73762919 0 0 Z " fill="#D0B370" transform="translate(315,286)" stroke="#D0B370" stroke-width="3" />
<path d="M0 0 C6.92612633 1.44819005 13.08910155 5.0486328 17 11 C14.50638429 9.79618552 12.31856917 8.54571278 10 7 C9.34 7.66 8.68 8.32 8 9 C6.02 8.01 4.04 7.02 2 6 C2.99 5.67 3.98 5.34 5 5 C5.66 5.33 6.32 5.66 7 6 C5.49336217 2.98672434 2.96833589 2.38943382 0 1 C0 0.67 0 0.34 0 0 Z " fill="#CFB476" transform="translate(539,209)" stroke="#CFB476" stroke-width="3" />
<path d="M0 0 C2.31 0 4.62 0 7 0 C6.01 1.485 6.01 1.485 5 3 C4.60612212 5.32387947 4.26513915 7.65793749 4 10 C3.01 10.33 2.02 10.66 1 11 C0.67 7.37 0.34 3.74 0 0 Z " fill="#DEAF4D" transform="translate(538,261)" stroke="#DEAF4D" stroke-width="3" />
<path d="M0 0 C0.66 0 1.32 0 2 0 C0.50079488 3.11373372 -1.08152136 6.12228205 -3 9 C-3.66 9 -4.32 9 -5 9 C-5 12.63 -5 16.26 -5 20 C-5.66 20.33 -6.32 20.66 -7 21 C-7.46012861 13.48456611 -6.36790332 8.37246837 -1.9375 2.0625 C-1.298125 1.381875 -0.65875 0.70125 0 0 Z " fill="#FBF6E3" transform="translate(336,220)" stroke="#FBF6E3" stroke-width="3" />
<path d="M0 0 C1.22589844 0.15275391 1.22589844 0.15275391 2.4765625 0.30859375 C3.41628906 0.43427734 3.41628906 0.43427734 4.375 0.5625 C4.375 3.2025 4.375 5.8425 4.375 8.5625 C3.715 8.5625 3.055 8.5625 2.375 8.5625 C2.045 6.5825 1.715 4.6025 1.375 2.5625 C0.776875 2.8925 0.17875 3.2225 -0.4375 3.5625 C-2.625 4.5625 -2.625 4.5625 -5.625 4.5625 C-5.955 3.2425 -6.285 1.9225 -6.625 0.5625 C-4.10446405 -0.69776798 -2.7707902 -0.35624445 0 0 Z " fill="#D7C18C" transform="translate(372.625,167.4375)" stroke="#D7C18C" stroke-width="3" />
<path d="M0 0 C1.65 0.33 3.3 0.66 5 1 C4.67 1.99 4.34 2.98 4 4 C1.87561661 4.08078641 -0.2496323 4.13909141 -2.375 4.1875 C-3.55835938 4.22230469 -4.74171875 4.25710938 -5.9609375 4.29296875 C-7.46527344 4.14794922 -7.46527344 4.14794922 -9 4 C-9.66 3.01 -10.32 2.02 -11 1 C-7.37 1.33 -3.74 1.66 0 2 C0 1.34 0 0.68 0 0 Z " fill="#C4B283" transform="translate(379,304)" stroke="#C4B283" stroke-width="3" />
<path d="M0 0 C6.93 0 13.86 0 21 0 C21 0.99 21 1.98 21 3 C15.39 2.34 9.78 1.68 4 1 C4 1.66 4 2.32 4 3 C2.68 3 1.36 3 0 3 C0 2.01 0 1.02 0 0 Z " fill="#BFAF80" transform="translate(505,282)" stroke="#BFAF80" stroke-width="3" />
<path d="M0 0 C5.28 0 10.56 0 16 0 C16 0.33 16 0.66 16 1 C12.37 1 8.74 1 5 1 C5 1.66 5 2.32 5 3 C6.32 3 7.64 3 9 3 C9 3.66 9 4.32 9 5 C6.36 5 3.72 5 1 5 C1.33 3.68 1.66 2.36 2 1 C1.34 0.67 0.68 0.34 0 0 Z " fill="#D9BD80" transform="translate(496,258)" stroke="#D9BD80" stroke-width="3" />
<path d="M0 0 C1.32 0 2.64 0 4 0 C3.37240135 2.92879371 2.41377341 5.36095629 1 8 C0.34 8 -0.32 8 -1 8 C-1.33 9.32 -1.66 10.64 -2 12 C-2.05422947 10.5629191 -2.09289723 9.12524538 -2.125 7.6875 C-2.14820313 6.88699219 -2.17140625 6.08648437 -2.1953125 5.26171875 C-2 3 -2 3 0 0 Z " fill="#D4B261" transform="translate(304,209)" stroke="#D4B261" stroke-width="3" />
<path d="M0 0 C-0.33 0.66 -0.66 1.32 -1 2 C-1.62648438 1.96519531 -2.25296875 1.93039063 -2.8984375 1.89453125 C-3.71570313 1.86746094 -4.53296875 1.84039062 -5.375 1.8125 C-6.59316406 1.76029297 -6.59316406 1.76029297 -7.8359375 1.70703125 C-8.55007813 1.80371094 -9.26421875 1.90039062 -10 2 C-10.99 3.485 -10.99 3.485 -12 5 C-12.99 4.67 -13.98 4.34 -15 4 C-14.34 3.01 -13.68 2.02 -13 1 C-14.32 1.33 -15.64 1.66 -17 2 C-17 1.34 -17 0.68 -17 0 C-11.24153561 -1.39599137 -5.75846439 -1.39599137 0 0 Z " fill="#D4BA7C" transform="translate(517,213)" stroke="#D4BA7C" stroke-width="3" />
<path d="M0 0 C0.66 0.66 1.32 1.32 2 2 C4.22658154 2.37004294 4.22658154 2.37004294 6.7890625 2.4140625 C8.20058594 2.47207031 8.20058594 2.47207031 9.640625 2.53125 C10.62546875 2.5621875 11.6103125 2.593125 12.625 2.625 C14.11386719 2.68300781 14.11386719 2.68300781 15.6328125 2.7421875 C18.08835385 2.8366314 20.5438841 2.92219875 23 3 C23 3.33 23 3.66 23 4 C14.75 4 6.5 4 -2 4 C-2.33 3.01 -2.66 2.02 -3 1 C-2.01 0.67 -1.02 0.34 0 0 Z " fill="#C3B38B" transform="translate(420,304)" stroke="#C3B38B" stroke-width="3" />
<path d="M0 0 C1.44010481 0.25662245 2.8770687 0.53090821 4.3125 0.8125 C5.11300781 0.96332031 5.91351563 1.11414063 6.73828125 1.26953125 C9.26320524 2.08500756 10.38069734 2.91953671 12 5 C12 5.66 12 6.32 12 7 C3.64989059 4.6892779 3.64989059 4.6892779 0.9375 1.8125 C0.628125 1.214375 0.31875 0.61625 0 0 Z " fill="#D2B46A" transform="translate(477,177)" stroke="#D2B46A" stroke-width="3" />
<path d="M0 0 C0.66 0.66 1.32 1.32 2 2 C0.96508351 4.82249951 0.30084735 5.83374226 -2.375 7.3125 C-5.10579853 8.02770914 -6.39189261 7.9659657 -9 7 C-6.03716687 4.61327331 -3.05729491 2.2646629 0 0 Z " fill="#DCB258" transform="translate(390,154)" stroke="#DCB258" stroke-width="3" />
<path d="M0 0 C0.33 0 0.66 0 1 0 C1.11613204 3.10385211 1.18722029 6.20714662 1.25 9.3125 C1.28351562 10.19357422 1.31703125 11.07464844 1.3515625 11.98242188 C1.45026488 18.47210325 1.45026488 18.47210325 -0.8125 21.125 C-3.81979713 22.32791885 -5.91152179 21.77211955 -9 21 C-9 20.67 -9 20.34 -9 20 C-6.36 19.34 -3.72 18.68 -1 18 C-0.505 9.09 -0.505 9.09 0 0 Z " fill="#F3E7CB" transform="translate(521,287)" stroke="#F3E7CB" stroke-width="3" />
<path d="M0 0 C0.66 0.33 1.32 0.66 2 1 C1.67 1.66 1.34 2.32 1 3 C1.99 3.33 2.98 3.66 4 4 C4 3.34 4 2.68 4 2 C4.99 2.33 5.98 2.66 7 3 C4.36 4.98 1.72 6.96 -1 9 C-1 7.68 -1 6.36 -1 5 C-1.99 4.67 -2.98 4.34 -4 4 C-2.68 2.68 -1.36 1.36 0 0 Z " fill="#DAB76B" transform="translate(399,144)" stroke="#DAB76B" stroke-width="3" />
<path d="M0 0 C3.04564536 0.60912907 4.64725321 1.51602024 6.48046875 4.03125 C7.81692525 6.33729258 9.06499083 8.5021898 10 11 C9.67 11.99 9.34 12.98 9 14 C7.49717827 11.85609361 5.99764203 9.71001973 4.5 7.5625 C4.07074219 6.95083984 3.64148438 6.33917969 3.19921875 5.70898438 C0 1.11328125 0 1.11328125 0 0 Z " fill="#CEB16F" transform="translate(355,286)" stroke="#CEB16F" stroke-width="3" />
<path d="M0 0 C0.66 0.33 1.32 0.66 2 1 C2 1.99 2 2.98 2 4 C5.465 5.485 5.465 5.485 9 7 C9 7.66 9 8.32 9 9 C7.68 9 6.36 9 5 9 C5 8.34 5 7.68 5 7 C4.484375 6.87625 3.96875 6.7525 3.4375 6.625 C0.27297649 5.81358372 -2.86124985 4.9054087 -6 4 C-5.38125 3.71125 -4.7625 3.4225 -4.125 3.125 C-1.86674235 2.06279958 -1.86674235 2.06279958 0 0 Z " fill="#D2B576" transform="translate(314,276)" stroke="#D2B576" stroke-width="3" />
<path d="M0 0 C0.33 0 0.66 0 1 0 C1.06058594 0.56847656 1.12117188 1.13695312 1.18359375 1.72265625 C1.70176573 6.49781037 2.29243859 11.2492305 3 16 C0.01790445 13.14756078 -0.96661242 11.90146473 -1.125 7.625 C-1.02826818 4.81977734 -0.84468731 2.63964784 0 0 Z " fill="#C4B379" transform="translate(303,217)" stroke="#C4B379" stroke-width="3" />
<path d="M0 0 C2.12493141 -0.02693575 4.24995912 -0.04636628 6.375 -0.0625 C7.55835938 -0.07410156 8.74171875 -0.08570313 9.9609375 -0.09765625 C13 0 13 0 15 1 C15 1.66 15 2.32 15 3 C10.05 2.67 5.1 2.34 0 2 C0 1.34 0 0.68 0 0 Z " fill="#D4B673" transform="translate(365,201)" stroke="#D4B673" stroke-width="3" />
<path d="M0 0 C0.66 0.33 1.32 0.66 2 1 C1.67 1.33 1.34 1.66 1 2 C0.76712992 3.68183948 0.58735834 5.3712416 0.4375 7.0625 C0.31181641 8.44115234 0.31181641 8.44115234 0.18359375 9.84765625 C0.12300781 10.55792969 0.06242187 11.26820313 0 12 C1.32 12.33 2.64 12.66 4 13 C2.35 13.66 0.7 14.32 -1 15 C-1.66 14.01 -2.32 13.02 -3 12 C-2.67 11.01 -2.34 10.02 -2 9 C-1.80785914 7.62832778 -1.64234848 6.2527299 -1.5 4.875 C-1 1 -1 1 0 0 Z " fill="#CEAF60" transform="translate(317,266)" stroke="#CEAF60" stroke-width="3" />
<path d="M0 0 C1.98 0 3.96 0 6 0 C6 2.31 6 4.62 6 7 C1.2 4.53846154 1.2 4.53846154 0.1875 1.8125 C0.125625 1.214375 0.06375 0.61625 0 0 Z " fill="#DAB04F" transform="translate(512,261)" stroke="#DAB04F" stroke-width="3" />
<path d="M0 0 C0.66 0 1.32 0 2 0 C4.67927341 4.01891012 4.15601248 6.24161923 4 11 C3.34 11 2.68 11 2 11 C0.80712589 7.12315913 0 4.08378077 0 0 Z " fill="#C7B17C" transform="translate(325,230)" stroke="#C7B17C" stroke-width="3" />
<path d="M0 0 C-0.33 1.65 -0.66 3.3 -1 5 C-2.98 5 -4.96 5 -7 5 C-5.22678182 1.07358831 -4.52021524 0 0 0 Z " fill="#D7B66F" transform="translate(367,169)" stroke="#D7B66F" stroke-width="3" />
<path d="M0 0 C0 1.98 0 3.96 0 6 C-3 6 -3 6 -4.6875 4.5 C-5.120625 4.005 -5.55375 3.51 -6 3 C-2.25 0 -2.25 0 0 0 Z " fill="#D5AC54" transform="translate(562,279)" stroke="#D5AC54" stroke-width="3" />
<path d="M0 0 C3.3 0 6.6 0 10 0 C9.01 0.495 9.01 0.495 8 1 C8 1.66 8 2.32 8 3 C5.36 3 2.72 3 0 3 C0 2.01 0 1.02 0 0 Z " fill="#CFAE61" transform="translate(546,280)" stroke="#CFAE61" stroke-width="3" />
<path d="M0 0 C2.475 0.99 2.475 0.99 5 2 C4.01 3.32 3.02 4.64 2 6 C1.67 5.34 1.34 4.68 1 4 C-2.24849977 5.72226496 -2.24849977 5.72226496 -3 9 C-3.66 9 -4.32 9 -5 9 C-3.7508258 5.54074837 -2.32472205 2.85306797 0 0 Z " fill="#D1B779" transform="translate(492,218)" stroke="#D1B779" stroke-width="3" />
<path d="M0 0 C0 0.66 0 1.32 0 2 C3.96 2 7.92 2 12 2 C12 2.33 12 2.66 12 3 C6.06 3 0.12 3 -6 3 C-6 2.34 -6 1.68 -6 1 C-3.92446352 0.4465236 -2.15634036 0 0 0 Z " fill="#D2BC8D" transform="translate(310,200)" stroke="#D2BC8D" stroke-width="3" />
<path d="M0 0 C0.33 0 0.66 0 1 0 C1.375 2.125 1.375 2.125 1 5 C-0.79340357 7.23913252 -2.83452663 9.12454539 -5 11 C-5.99 10.67 -6.98 10.34 -8 10 C-7.236875 9.278125 -6.47375 8.55625 -5.6875 7.8125 C-3.28715765 5.30051382 -1.70928296 2.99124519 0 0 Z " fill="#FAF6E6" transform="translate(466,292)" stroke="#FAF6E6" stroke-width="3" />
<path d="M0 0 C3.80666984 1.44390925 5.26602582 3.34952803 7 7 C6.67 7.66 6.34 8.32 6 9 C5.34 9 4.68 9 4 9 C3.67 7.35 3.34 5.7 3 4 C2.01 3.67 1.02 3.34 0 3 C0 2.01 0 1.02 0 0 Z " fill="#D3B35F" transform="translate(457,263)" stroke="#D3B35F" stroke-width="3" />
<path d="M0 0 C0.33 0 0.66 0 1 0 C1 3.3 1 6.6 1 10 C-2.73639216 8.75453595 -3.18756513 7.36595047 -5 4 C-3.68 4 -2.36 4 -1 4 C-0.67 2.68 -0.34 1.36 0 0 Z " fill="#CAB374" transform="translate(566,260)" stroke="#CAB374" stroke-width="3" />
<path d="M0 0 C1.32 0 2.64 0 4 0 C3.34 2.97 2.68 5.94 2 9 C1.34 9 0.68 9 0 9 C0 6.03 0 3.06 0 0 Z " fill="#D3B054" transform="translate(551,222)" stroke="#D3B054" stroke-width="3" />
<path d="M0 0 C0.66 0 1.32 0 2 0 C6.09030544 5.14209827 6.09030544 5.14209827 5.75 8.375 C5.5025 8.91125 5.255 9.4475 5 10 C4.34 10 3.68 10 3 10 C3 8.02 3 6.04 3 4 C2.34 4 1.68 4 1 4 C0.67 2.68 0.34 1.36 0 0 Z " fill="#D6B15F" transform="translate(290,260)" stroke="#D6B15F" stroke-width="3" />
<path d="M0 0 C2.475 0.495 2.475 0.495 5 1 C5 1.66 5 2.32 5 3 C7.97 3.495 7.97 3.495 11 4 C11.33 4.99 11.66 5.98 12 7 C7.39104317 5.68315519 3.85859765 3.84801255 0 1 C0 0.67 0 0.34 0 0 Z " fill="#D5B971" transform="translate(455,193)" stroke="#D5B971" stroke-width="3" />
<path d="M0 0 C0.99 0.33 1.98 0.66 3 1 C3 1.66 3 2.32 3 3 C4.65 3 6.3 3 8 3 C8 2.34 8 1.68 8 1 C8.99 1.33 9.98 1.66 11 2 C11 2.66 11 3.32 11 4 C7.37 4 3.74 4 0 4 C0 2.68 0 1.36 0 0 Z " fill="#C7A554" transform="translate(394,302)" stroke="#C7A554" stroke-width="3" />
<path d="M0 0 C0 0.99 0 1.98 0 3 C-3.63 3 -7.26 3 -11 3 C-10.67 2.34 -10.34 1.68 -10 1 C-6.63471927 0.46582846 -3.40372484 0 0 0 Z " fill="#DBB250" transform="translate(354,212)" stroke="#DBB250" stroke-width="3" />
<path d="M0 0 C0.99 0 1.98 0 3 0 C3.25 7.625 3.25 7.625 1 11 C1 8.03 1 5.06 1 2 C0.34 1.67 -0.32 1.34 -1 1 C-0.67 0.67 -0.34 0.34 0 0 Z " fill="#F8F3E2" transform="translate(568,294)" stroke="#F8F3E2" stroke-width="3" />
<path d="M0 0 C4.455 0.99 4.455 0.99 9 2 C9 2.99 9 3.98 9 5 C4.545 4.01 4.545 4.01 0 3 C0 2.01 0 1.02 0 0 Z " fill="#D4C49B" transform="translate(507,188)" stroke="#D4C49B" stroke-width="3" />
<path d="M0 0 C1.74965358 -0.05429959 3.49979787 -0.09292823 5.25 -0.125 C6.22453125 -0.14820313 7.1990625 -0.17140625 8.203125 -0.1953125 C11.0196498 0.00137219 12.60949036 0.55431084 15 2 C9.20858017 3.01603857 5.5415502 2.96263236 0 1 C0 0.67 0 0.34 0 0 Z " fill="#CDAC62" transform="translate(501,304)" stroke="#CDAC62" stroke-width="3" />
<path d="M0 0 C3.37462715 0.54723683 5.08235 1.0549 8 3 C7.67 3.66 7.34 4.32 7 5 C4.0625 4.1875 4.0625 4.1875 1 3 C0.67 2.01 0.34 1.02 0 0 Z " fill="#D8B35D" transform="translate(463,171)" stroke="#D8B35D" stroke-width="3" />
<path d="M0 0 C1.9375 0.8125 1.9375 0.8125 4 2 C4.33 2.99 4.66 3.98 5 5 C4.01 5.33 3.02 5.66 2 6 C1.34 5.34 0.68 4.68 0 4 C0 2.68 0 1.36 0 0 Z " fill="#D3AF5B" transform="translate(525,222)" stroke="#D3AF5B" stroke-width="3" />
<path d="M0 0 C4.875 2.75 4.875 2.75 6 5 C5.01 5.33 4.02 5.66 3 6 C2.01 5.34 1.02 4.68 0 4 C0 2.68 0 1.36 0 0 Z " fill="#D6AD56" transform="translate(548,215)" stroke="#D6AD56" stroke-width="3" />
<path d="M0 0 C3.37462715 0.54723683 5.08235 1.0549 8 3 C8 3.66 8 4.32 8 5 C2.25 3.375 2.25 3.375 0 0 Z " fill="#DDB34F" transform="translate(429,152)" stroke="#DDB34F" stroke-width="3" />
<path d="M0 0 C4.455 1.98 4.455 1.98 9 4 C8.67 4.66 8.34 5.32 8 6 C5.69 5.34 3.38 4.68 1 4 C0.67 2.68 0.34 1.36 0 0 Z " fill="#C5AA6C" transform="translate(491,299)" stroke="#C5AA6C" stroke-width="3" />
<path d="M0 0 C1.32 0.33 2.64 0.66 4 1 C3.67 2.65 3.34 4.3 3 6 C2.01 5.67 1.02 5.34 0 5 C0 3.35 0 1.7 0 0 Z " fill="#D8B768" transform="translate(486,227)" stroke="#D8B768" stroke-width="3" />
<path d="M0 0 C2.97 0.495 2.97 0.495 6 1 C4.75 2.5625 4.75 2.5625 3 4 C0.8125 3.6875 0.8125 3.6875 -1 3 C-0.67 2.01 -0.34 1.02 0 0 Z " fill="#DAB264" transform="translate(375,164)" stroke="#DAB264" stroke-width="3" />
</svg>